%TF.GenerationSoftware,KiCad,Pcbnew,9.0.9-9.0.9~ubuntu24.04.1*%
%TF.CreationDate,2026-09-23T13:12:41+02:00*%
%TF.ProjectId,g_n_ratrice_musculaire,67e96ee9-7261-4747-9269-63655f6d7573,rev?*%
%TF.SameCoordinates,Original*%
%TF.FileFunction,Legend,Top*%
%TF.FilePolarity,Positive*%
%FSLAX46Y46*%
G04 Gerber Fmt 4.6, Leading zero omitted, Abs format (unit mm)*
G04 Created by KiCad (PCBNEW 9.0.9-9.0.9~ubuntu24.04.1) date 2026-09-23 13:12:41*
%MOMM*%
%LPD*%
G01*
G04 APERTURE LIST*
%ADD10C,0.254000*%
%ADD11C,0.150000*%
%ADD12C,0.200000*%
%ADD13C,0.100000*%
%ADD14C,0.120000*%
G04 APERTURE END LIST*
D10*
X145316667Y-111714318D02*
X145316667Y-112621461D01*
X145316667Y-112621461D02*
X145256190Y-112802889D01*
X145256190Y-112802889D02*
X145135238Y-112923842D01*
X145135238Y-112923842D02*
X144953809Y-112984318D01*
X144953809Y-112984318D02*
X144832857Y-112984318D01*
X145860952Y-111835270D02*
X145921428Y-111774794D01*
X145921428Y-111774794D02*
X146042381Y-111714318D01*
X146042381Y-111714318D02*
X146344762Y-111714318D01*
X146344762Y-111714318D02*
X146465714Y-111774794D01*
X146465714Y-111774794D02*
X146526190Y-111835270D01*
X146526190Y-111835270D02*
X146586667Y-111956222D01*
X146586667Y-111956222D02*
X146586667Y-112077175D01*
X146586667Y-112077175D02*
X146526190Y-112258603D01*
X146526190Y-112258603D02*
X145800476Y-112984318D01*
X145800476Y-112984318D02*
X146586667Y-112984318D01*
D11*
X137804819Y-78911904D02*
X138614342Y-78911904D01*
X138614342Y-78911904D02*
X138709580Y-78864285D01*
X138709580Y-78864285D02*
X138757200Y-78816666D01*
X138757200Y-78816666D02*
X138804819Y-78721428D01*
X138804819Y-78721428D02*
X138804819Y-78530952D01*
X138804819Y-78530952D02*
X138757200Y-78435714D01*
X138757200Y-78435714D02*
X138709580Y-78388095D01*
X138709580Y-78388095D02*
X138614342Y-78340476D01*
X138614342Y-78340476D02*
X137804819Y-78340476D01*
X138804819Y-77340476D02*
X138804819Y-77911904D01*
X138804819Y-77626190D02*
X137804819Y-77626190D01*
X137804819Y-77626190D02*
X137947676Y-77721428D01*
X137947676Y-77721428D02*
X138042914Y-77816666D01*
X138042914Y-77816666D02*
X138090533Y-77911904D01*
D10*
X127284318Y-110831666D02*
X127284318Y-111436428D01*
X127284318Y-111436428D02*
X126014318Y-111436428D01*
X126135270Y-110468809D02*
X126074794Y-110408333D01*
X126074794Y-110408333D02*
X126014318Y-110287380D01*
X126014318Y-110287380D02*
X126014318Y-109984999D01*
X126014318Y-109984999D02*
X126074794Y-109864047D01*
X126074794Y-109864047D02*
X126135270Y-109803571D01*
X126135270Y-109803571D02*
X126256222Y-109743094D01*
X126256222Y-109743094D02*
X126377175Y-109743094D01*
X126377175Y-109743094D02*
X126558603Y-109803571D01*
X126558603Y-109803571D02*
X127284318Y-110529285D01*
X127284318Y-110529285D02*
X127284318Y-109743094D01*
D12*
%TO.C,J2*%
X141930000Y-108760000D02*
X149550000Y-108760000D01*
X149550000Y-108760000D02*
X149550000Y-116060000D01*
X149550000Y-116060000D02*
X141930000Y-116060000D01*
X141930000Y-116060000D02*
X141930000Y-108760000D01*
D13*
X141390000Y-112560000D02*
X141390000Y-112560000D01*
X141290000Y-112560000D02*
X141290000Y-112560000D01*
X141290000Y-112560000D02*
G75*
G02*
X141390000Y-112560000I50000J0D01*
G01*
X141390000Y-112560000D02*
G75*
G02*
X141290000Y-112560000I-50000J0D01*
G01*
D14*
%TO.C,U1*%
X139800000Y-81610000D02*
X139800000Y-82975000D01*
X139800000Y-82975000D02*
X140750000Y-82975000D01*
X150200000Y-81610000D02*
X150200000Y-82975000D01*
X150200000Y-82975000D02*
X149250000Y-82975000D01*
X140790000Y-85800000D02*
X140320000Y-86140000D01*
X140320000Y-85460000D01*
X140790000Y-85800000D01*
G36*
X140790000Y-85800000D02*
G01*
X140320000Y-86140000D01*
X140320000Y-85460000D01*
X140790000Y-85800000D01*
G37*
D12*
%TO.C,L2*%
X119090000Y-101350000D02*
X124910000Y-101350000D01*
X119090000Y-119890000D02*
X119090000Y-101350000D01*
X124910000Y-119890000D02*
X119090000Y-119890000D01*
D13*
X126710000Y-100820000D02*
X126710000Y-100820000D01*
X126710000Y-100920000D02*
X126710000Y-100920000D01*
D12*
X128510000Y-101350000D02*
X134330000Y-101350000D01*
X134330000Y-101350000D02*
X134330000Y-119890000D01*
X134330000Y-119890000D02*
X128510000Y-119890000D01*
D13*
X126710000Y-100820000D02*
G75*
G02*
X126710000Y-100920000I0J-50000D01*
G01*
X126710000Y-100920000D02*
G75*
G02*
X126710000Y-100820000I0J50000D01*
G01*
%TD*%
M02*
