%TF.GenerationSoftware,KiCad,Pcbnew,9.0.9-9.0.9~ubuntu24.04.1*%
%TF.CreationDate,2026-09-23T13:12:39+02:00*%
%TF.ProjectId,g_n_ratrice_musculaire,67e96ee9-7261-4747-9269-63655f6d7573,rev?*%
%TF.SameCoordinates,Original*%
%TF.FileFunction,Copper,L1,Top*%
%TF.FilePolarity,Positive*%
%FSLAX46Y46*%
G04 Gerber Fmt 4.6, Leading zero omitted, Abs format (unit mm)*
G04 Created by KiCad (PCBNEW 9.0.9-9.0.9~ubuntu24.04.1) date 2026-09-23 13:12:39*
%MOMM*%
%LPD*%
G01*
G04 APERTURE LIST*
G04 Aperture macros list*
%AMRoundRect*
0 Rectangle with rounded corners*
0 $1 Rounding radius*
0 $2 $3 $4 $5 $6 $7 $8 $9 X,Y pos of 4 corners*
0 Add a 4 corners polygon primitive as box body*
4,1,4,$2,$3,$4,$5,$6,$7,$8,$9,$2,$3,0*
0 Add four circle primitives for the rounded corners*
1,1,$1+$1,$2,$3*
1,1,$1+$1,$4,$5*
1,1,$1+$1,$6,$7*
1,1,$1+$1,$8,$9*
0 Add four rect primitives between the rounded corners*
20,1,$1+$1,$2,$3,$4,$5,0*
20,1,$1+$1,$4,$5,$6,$7,0*
20,1,$1+$1,$6,$7,$8,$9,0*
20,1,$1+$1,$8,$9,$2,$3,0*%
G04 Aperture macros list end*
%TA.AperFunction,ComponentPad*%
%ADD10R,1.650000X1.650000*%
%TD*%
%TA.AperFunction,ComponentPad*%
%ADD11C,1.650000*%
%TD*%
%TA.AperFunction,SMDPad,CuDef*%
%ADD12RoundRect,0.250000X0.300000X-2.050000X0.300000X2.050000X-0.300000X2.050000X-0.300000X-2.050000X0*%
%TD*%
%TA.AperFunction,SMDPad,CuDef*%
%ADD13RoundRect,0.250002X5.149998X-4.449998X5.149998X4.449998X-5.149998X4.449998X-5.149998X-4.449998X0*%
%TD*%
%TA.AperFunction,SMDPad,CuDef*%
%ADD14R,2.920000X2.790000*%
%TD*%
%TA.AperFunction,ComponentPad*%
%ADD15RoundRect,0.250000X-0.550000X-0.550000X0.550000X-0.550000X0.550000X0.550000X-0.550000X0.550000X0*%
%TD*%
%TA.AperFunction,ComponentPad*%
%ADD16C,1.600000*%
%TD*%
%TA.AperFunction,ComponentPad*%
%ADD17R,6.000000X6.000000*%
%TD*%
%TA.AperFunction,ComponentPad*%
%ADD18C,6.000000*%
%TD*%
%TA.AperFunction,ComponentPad*%
%ADD19R,2.250000X2.250000*%
%TD*%
%TA.AperFunction,ComponentPad*%
%ADD20C,2.250000*%
%TD*%
%TA.AperFunction,ComponentPad*%
%ADD21RoundRect,0.250001X0.949999X0.949999X-0.949999X0.949999X-0.949999X-0.949999X0.949999X-0.949999X0*%
%TD*%
%TA.AperFunction,ComponentPad*%
%ADD22C,2.400000*%
%TD*%
%TA.AperFunction,Conductor*%
%ADD23C,1.400000*%
%TD*%
%TA.AperFunction,Conductor*%
%ADD24C,0.200000*%
%TD*%
%TA.AperFunction,Conductor*%
%ADD25C,1.200000*%
%TD*%
G04 APERTURE END LIST*
D10*
%TO.P,J2,1,1*%
%TO.N,Net-(U1-FB)*%
X143990000Y-112560000D03*
D11*
%TO.P,J2,2,2*%
%TO.N,GND*%
X147490000Y-112560000D03*
%TD*%
D12*
%TO.P,U1,1,VIN*%
%TO.N,Net-(U1-VIN)*%
X141600000Y-85800000D03*
%TO.P,U1,2,OUT*%
%TO.N,Net-(D1-K)*%
X143300000Y-85800000D03*
%TO.P,U1,3,GND*%
%TO.N,GND*%
X145000000Y-85800000D03*
D13*
X145000000Y-76650000D03*
D12*
%TO.P,U1,4,FB*%
%TO.N,Net-(U1-FB)*%
X146700000Y-85800000D03*
%TO.P,U1,5,~{ON}/OFF*%
%TO.N,GND*%
X148400000Y-85800000D03*
%TD*%
D14*
%TO.P,L2,1,1*%
%TO.N,Net-(D1-K)*%
X126710000Y-103000000D03*
%TO.P,L2,2,2*%
%TO.N,Net-(U1-FB)*%
X126710000Y-118240000D03*
%TD*%
D15*
%TO.P,CIN1,1*%
%TO.N,Net-(U1-VIN)*%
X125307349Y-68820000D03*
D16*
%TO.P,CIN1,2*%
%TO.N,GND*%
X128807349Y-68820000D03*
%TD*%
D17*
%TO.P,Q1,1,1*%
%TO.N,GND*%
X146537500Y-61200000D03*
D18*
%TO.P,Q1,2,2*%
%TO.N,Net-(U1-VIN)*%
X139337500Y-60895000D03*
%TD*%
D19*
%TO.P,D1,1,K*%
%TO.N,Net-(D1-K)*%
X125540000Y-97170000D03*
D20*
%TO.P,D1,2,A*%
%TO.N,GND*%
X125540000Y-77670000D03*
%TD*%
D21*
%TO.P,COUT1,1*%
%TO.N,Net-(U1-FB)*%
X143950000Y-98430000D03*
D22*
%TO.P,COUT1,2*%
%TO.N,GND*%
X138950000Y-98430000D03*
%TD*%
D23*
%TO.N,Net-(U1-FB)*%
X143990000Y-112560000D02*
X143950000Y-112520000D01*
X143950000Y-112520000D02*
X143950000Y-98430000D01*
X126710000Y-118240000D02*
X126710000Y-117960000D01*
X126710000Y-117960000D02*
X131670000Y-113000000D01*
X131670000Y-113000000D02*
X143550000Y-113000000D01*
X143550000Y-113000000D02*
X143990000Y-112560000D01*
%TO.N,GND*%
X144210000Y-68820000D02*
X146537500Y-66492500D01*
X146537500Y-66492500D02*
X146537500Y-61200000D01*
D24*
X148076041Y-111723959D02*
X148000000Y-111800000D01*
D25*
X145000000Y-85800000D02*
X145000000Y-76650000D01*
D23*
X128807349Y-68820000D02*
X144210000Y-68820000D01*
D25*
%TO.N,Net-(U1-VIN)*%
X132800000Y-79020000D02*
X132800000Y-84600000D01*
D23*
X139337500Y-60895000D02*
X127665000Y-60895000D01*
D25*
X125307349Y-68820000D02*
X125307349Y-71527349D01*
X125307349Y-71527349D02*
X132800000Y-79020000D01*
D23*
X125307349Y-63252651D02*
X125307349Y-68820000D01*
D25*
X134000000Y-85800000D02*
X132800000Y-84600000D01*
D23*
X127665000Y-60895000D02*
X125307349Y-63252651D01*
D25*
X141600000Y-85800000D02*
X134000000Y-85800000D01*
%TO.N,Net-(U1-FB)*%
X143950000Y-94850000D02*
X146700000Y-92100000D01*
X146700000Y-92100000D02*
X146700000Y-85800000D01*
X143950000Y-98430000D02*
X143950000Y-94850000D01*
D23*
%TO.N,Net-(D1-K)*%
X125940000Y-97570000D02*
X125540000Y-97170000D01*
D25*
X142000000Y-90400000D02*
X136950000Y-90400000D01*
X136950000Y-90400000D02*
X130180000Y-97170000D01*
X143300000Y-89100000D02*
X142000000Y-90400000D01*
D23*
X126710000Y-103000000D02*
X125940000Y-102230000D01*
X125940000Y-102230000D02*
X125940000Y-97570000D01*
D25*
X143300000Y-85800000D02*
X143300000Y-89100000D01*
X130180000Y-97170000D02*
X125540000Y-97170000D01*
%TD*%
%TA.AperFunction,Conductor*%
%TO.N,GND*%
G36*
X153142539Y-55320185D02*
G01*
X153188294Y-55372989D01*
X153199500Y-55424500D01*
X153199500Y-120685500D01*
X153179815Y-120752539D01*
X153127011Y-120798294D01*
X153075500Y-120809500D01*
X116854500Y-120809500D01*
X116787461Y-120789815D01*
X116741706Y-120737011D01*
X116730500Y-120685500D01*
X116730500Y-116797135D01*
X124749500Y-116797135D01*
X124749500Y-119682870D01*
X124749501Y-119682876D01*
X124755908Y-119742483D01*
X124806202Y-119877328D01*
X124806206Y-119877335D01*
X124892452Y-119992544D01*
X124892455Y-119992547D01*
X125007664Y-120078793D01*
X125007671Y-120078797D01*
X125142517Y-120129091D01*
X125142516Y-120129091D01*
X125149444Y-120129835D01*
X125202127Y-120135500D01*
X128217872Y-120135499D01*
X128277483Y-120129091D01*
X128412331Y-120078796D01*
X128527546Y-119992546D01*
X128613796Y-119877331D01*
X128664091Y-119742483D01*
X128670500Y-119682873D01*
X128670499Y-118499236D01*
X136057535Y-118499236D01*
X136057535Y-118744693D01*
X136089572Y-118988045D01*
X136153102Y-119225141D01*
X136247031Y-119451905D01*
X136247035Y-119451915D01*
X136369760Y-119664482D01*
X136519183Y-119859214D01*
X136519189Y-119859221D01*
X136692743Y-120032775D01*
X136692750Y-120032781D01*
X136887482Y-120182204D01*
X137100049Y-120304929D01*
X137100050Y-120304929D01*
X137100053Y-120304931D01*
X137326824Y-120398863D01*
X137563916Y-120462392D01*
X137746433Y-120486420D01*
X137807271Y-120494430D01*
X137807272Y-120494430D01*
X138052729Y-120494430D01*
X138101399Y-120488022D01*
X138296084Y-120462392D01*
X138533176Y-120398863D01*
X138759947Y-120304931D01*
X138972518Y-120182204D01*
X139167251Y-120032780D01*
X139340815Y-119859216D01*
X139490239Y-119664483D01*
X139612966Y-119451912D01*
X139706898Y-119225141D01*
X139770427Y-118988049D01*
X139802465Y-118744693D01*
X139802465Y-118499237D01*
X139770427Y-118255881D01*
X139706898Y-118018789D01*
X139612966Y-117792018D01*
X139591418Y-117754696D01*
X139490239Y-117579447D01*
X139340816Y-117384715D01*
X139340810Y-117384708D01*
X139167256Y-117211154D01*
X139167249Y-117211148D01*
X138972517Y-117061725D01*
X138759950Y-116939000D01*
X138759940Y-116938996D01*
X138533176Y-116845067D01*
X138354292Y-116797135D01*
X138296084Y-116781538D01*
X138296083Y-116781537D01*
X138296080Y-116781537D01*
X138052729Y-116749500D01*
X138052728Y-116749500D01*
X137807272Y-116749500D01*
X137807271Y-116749500D01*
X137563919Y-116781537D01*
X137326823Y-116845067D01*
X137100059Y-116938996D01*
X137100049Y-116939000D01*
X136887482Y-117061725D01*
X136692750Y-117211148D01*
X136692743Y-117211154D01*
X136519189Y-117384708D01*
X136519183Y-117384715D01*
X136369760Y-117579447D01*
X136247035Y-117792014D01*
X136247031Y-117792024D01*
X136153102Y-118018788D01*
X136089572Y-118255884D01*
X136057535Y-118499236D01*
X128670499Y-118499236D01*
X128670499Y-117748624D01*
X128690184Y-117681586D01*
X128706813Y-117660949D01*
X132130945Y-114236819D01*
X132192268Y-114203334D01*
X132218626Y-114200500D01*
X143644486Y-114200500D01*
X143831118Y-114170940D01*
X144010832Y-114112547D01*
X144179199Y-114026760D01*
X144332074Y-113915690D01*
X144332087Y-113915676D01*
X144332640Y-113915206D01*
X144332898Y-113915090D01*
X144336015Y-113912826D01*
X144336490Y-113913480D01*
X144396402Y-113886638D01*
X144413169Y-113885499D01*
X144862871Y-113885499D01*
X144862872Y-113885499D01*
X144922483Y-113879091D01*
X145057331Y-113828796D01*
X145172546Y-113742546D01*
X145258796Y-113627331D01*
X145262598Y-113617136D01*
X145281381Y-113566779D01*
X145309091Y-113492482D01*
X145315500Y-113432873D01*
X145315499Y-112455720D01*
X146165000Y-112455720D01*
X146165000Y-112664279D01*
X146197626Y-112870272D01*
X146262075Y-113068627D01*
X146356759Y-113254451D01*
X146392627Y-113303818D01*
X146392627Y-113303819D01*
X146966212Y-112730234D01*
X146977482Y-112772292D01*
X147049890Y-112897708D01*
X147152292Y-113000110D01*
X147277708Y-113072518D01*
X147319765Y-113083787D01*
X146746179Y-113657371D01*
X146746180Y-113657372D01*
X146795543Y-113693236D01*
X146795556Y-113693244D01*
X146981372Y-113787924D01*
X147179727Y-113852373D01*
X147385721Y-113885000D01*
X147594279Y-113885000D01*
X147800272Y-113852373D01*
X147998627Y-113787924D01*
X148184451Y-113693240D01*
X148233818Y-113657372D01*
X148233818Y-113657371D01*
X147660234Y-113083787D01*
X147702292Y-113072518D01*
X147827708Y-113000110D01*
X147930110Y-112897708D01*
X148002518Y-112772292D01*
X148013787Y-112730234D01*
X148587371Y-113303818D01*
X148587372Y-113303818D01*
X148623240Y-113254451D01*
X148717924Y-113068627D01*
X148782373Y-112870272D01*
X148815000Y-112664279D01*
X148815000Y-112455720D01*
X148782373Y-112249727D01*
X148717924Y-112051372D01*
X148623244Y-111865556D01*
X148623236Y-111865543D01*
X148587372Y-111816180D01*
X148587371Y-111816179D01*
X148013787Y-112389764D01*
X148002518Y-112347708D01*
X147930110Y-112222292D01*
X147827708Y-112119890D01*
X147702292Y-112047482D01*
X147660233Y-112036212D01*
X148233819Y-111462627D01*
X148184451Y-111426759D01*
X147998627Y-111332075D01*
X147800272Y-111267626D01*
X147594279Y-111235000D01*
X147385721Y-111235000D01*
X147179727Y-111267626D01*
X146981372Y-111332075D01*
X146795552Y-111426757D01*
X146746180Y-111462627D01*
X147319766Y-112036212D01*
X147277708Y-112047482D01*
X147152292Y-112119890D01*
X147049890Y-112222292D01*
X146977482Y-112347708D01*
X146966212Y-112389765D01*
X146392627Y-111816180D01*
X146356757Y-111865552D01*
X146262075Y-112051372D01*
X146197626Y-112249727D01*
X146165000Y-112455720D01*
X145315499Y-112455720D01*
X145315499Y-111687128D01*
X145309091Y-111627517D01*
X145309090Y-111627513D01*
X145285458Y-111564152D01*
X145285456Y-111564149D01*
X145258796Y-111492669D01*
X145172546Y-111377454D01*
X145172211Y-111377203D01*
X145168441Y-111370979D01*
X145160985Y-111342844D01*
X145150816Y-111315580D01*
X145150500Y-111306733D01*
X145150500Y-100175908D01*
X145170185Y-100108869D01*
X145214271Y-100070364D01*
X145213187Y-100068606D01*
X145289972Y-100021243D01*
X145368655Y-99972711D01*
X145492711Y-99848655D01*
X145584814Y-99699334D01*
X145639999Y-99532797D01*
X145650500Y-99430008D01*
X145650500Y-97429992D01*
X145639999Y-97327203D01*
X145584814Y-97160666D01*
X145500710Y-97024314D01*
X145492713Y-97011348D01*
X145492710Y-97011344D01*
X145368655Y-96887289D01*
X145368651Y-96887286D01*
X145219337Y-96795187D01*
X145135495Y-96767404D01*
X145078050Y-96727631D01*
X145051228Y-96663114D01*
X145050500Y-96649698D01*
X145050500Y-95357204D01*
X145070185Y-95290165D01*
X145086819Y-95269523D01*
X146223273Y-94133069D01*
X147539414Y-92816928D01*
X147641232Y-92676788D01*
X147719873Y-92522446D01*
X147773402Y-92357701D01*
X147800500Y-92186611D01*
X147800500Y-92013390D01*
X147800500Y-88711433D01*
X147820185Y-88644394D01*
X147872989Y-88598639D01*
X147940558Y-88588923D01*
X147940569Y-88588818D01*
X147940991Y-88588861D01*
X147942147Y-88588695D01*
X147945849Y-88589357D01*
X148050019Y-88599999D01*
X148650000Y-88599999D01*
X148749972Y-88599999D01*
X148749986Y-88599998D01*
X148852697Y-88589505D01*
X149019119Y-88534358D01*
X149019124Y-88534356D01*
X149168345Y-88442315D01*
X149292315Y-88318345D01*
X149384356Y-88169124D01*
X149384358Y-88169119D01*
X149439505Y-88002697D01*
X149439506Y-88002690D01*
X149449999Y-87899986D01*
X149450000Y-87899973D01*
X149450000Y-86050000D01*
X148650000Y-86050000D01*
X148650000Y-88599999D01*
X148050019Y-88599999D01*
X148150000Y-88599998D01*
X148150000Y-85550000D01*
X148650000Y-85550000D01*
X149449999Y-85550000D01*
X149449999Y-83700028D01*
X149449998Y-83700013D01*
X149439505Y-83597302D01*
X149384358Y-83430880D01*
X149384356Y-83430875D01*
X149292315Y-83281654D01*
X149168345Y-83157684D01*
X149019124Y-83065643D01*
X149019119Y-83065641D01*
X148852697Y-83010494D01*
X148852690Y-83010493D01*
X148749986Y-83000000D01*
X148650000Y-83000000D01*
X148650000Y-85550000D01*
X148150000Y-85550000D01*
X148150000Y-82999999D01*
X148050028Y-83000000D01*
X148050012Y-83000001D01*
X147947302Y-83010494D01*
X147780880Y-83065641D01*
X147780875Y-83065643D01*
X147631649Y-83157687D01*
X147627305Y-83161122D01*
X147562507Y-83187255D01*
X147493866Y-83174207D01*
X147473497Y-83161116D01*
X147468660Y-83157292D01*
X147468656Y-83157288D01*
X147319334Y-83065186D01*
X147152797Y-83010001D01*
X147152795Y-83010000D01*
X147050010Y-82999500D01*
X146349998Y-82999500D01*
X146349980Y-82999501D01*
X146247203Y-83010000D01*
X146247200Y-83010001D01*
X146080668Y-83065185D01*
X146080663Y-83065187D01*
X145976157Y-83129646D01*
X145931344Y-83157288D01*
X145931343Y-83157288D01*
X145931330Y-83157297D01*
X145926487Y-83161126D01*
X145861687Y-83187256D01*
X145793047Y-83174204D01*
X145772683Y-83161114D01*
X145768346Y-83157684D01*
X145619124Y-83065643D01*
X145619119Y-83065641D01*
X145452697Y-83010494D01*
X145452690Y-83010493D01*
X145349986Y-83000000D01*
X145250000Y-83000000D01*
X145250000Y-88599999D01*
X145349972Y-88599999D01*
X145349986Y-88599998D01*
X145459431Y-88588818D01*
X145459648Y-88590942D01*
X145519192Y-88595386D01*
X145574996Y-88637429D01*
X145599211Y-88702969D01*
X145599500Y-88711433D01*
X145599500Y-91592796D01*
X145579815Y-91659835D01*
X145563181Y-91680477D01*
X143110588Y-94133069D01*
X143110588Y-94133070D01*
X143110586Y-94133072D01*
X143066859Y-94193256D01*
X143008768Y-94273211D01*
X142930128Y-94427552D01*
X142876597Y-94592302D01*
X142849500Y-94763389D01*
X142849500Y-96649698D01*
X142829815Y-96716737D01*
X142777011Y-96762492D01*
X142764505Y-96767404D01*
X142680663Y-96795187D01*
X142680662Y-96795187D01*
X142531348Y-96887286D01*
X142531344Y-96887289D01*
X142407289Y-97011344D01*
X142407286Y-97011348D01*
X142315187Y-97160662D01*
X142315186Y-97160664D01*
X142260001Y-97327203D01*
X142260000Y-97327204D01*
X142249500Y-97429984D01*
X142249500Y-99430015D01*
X142260000Y-99532795D01*
X142260001Y-99532796D01*
X142315186Y-99699335D01*
X142315187Y-99699337D01*
X142407286Y-99848651D01*
X142407289Y-99848655D01*
X142531344Y-99972710D01*
X142531348Y-99972713D01*
X142686813Y-100068606D01*
X142685706Y-100070399D01*
X142730337Y-100109687D01*
X142749500Y-100175908D01*
X142749500Y-111413598D01*
X142729815Y-111480637D01*
X142724768Y-111487907D01*
X142721205Y-111492665D01*
X142721202Y-111492671D01*
X142670910Y-111627513D01*
X142670909Y-111627517D01*
X142664500Y-111687127D01*
X142664500Y-111687136D01*
X142664326Y-111688755D01*
X142637588Y-111753306D01*
X142580195Y-111793154D01*
X142541036Y-111799500D01*
X131575513Y-111799500D01*
X131388885Y-111829059D01*
X131209165Y-111887454D01*
X131040800Y-111973240D01*
X130887923Y-112084312D01*
X126664053Y-116308181D01*
X126602730Y-116341666D01*
X126576372Y-116344500D01*
X125202129Y-116344500D01*
X125202123Y-116344501D01*
X125142516Y-116350908D01*
X125007671Y-116401202D01*
X125007664Y-116401206D01*
X124892455Y-116487452D01*
X124892452Y-116487455D01*
X124806206Y-116602664D01*
X124806202Y-116602671D01*
X124755908Y-116737517D01*
X124749501Y-116797116D01*
X124749500Y-116797135D01*
X116730500Y-116797135D01*
X116730500Y-95997135D01*
X123914500Y-95997135D01*
X123914500Y-98342870D01*
X123914501Y-98342876D01*
X123920908Y-98402483D01*
X123971202Y-98537328D01*
X123971206Y-98537335D01*
X124057452Y-98652544D01*
X124057455Y-98652547D01*
X124172664Y-98738793D01*
X124172671Y-98738797D01*
X124217618Y-98755561D01*
X124307517Y-98789091D01*
X124367127Y-98795500D01*
X124615501Y-98795499D01*
X124682539Y-98815183D01*
X124728294Y-98867987D01*
X124739500Y-98919499D01*
X124739500Y-102324484D01*
X124747973Y-102377978D01*
X124749500Y-102397377D01*
X124749500Y-104442870D01*
X124749501Y-104442876D01*
X124755908Y-104502483D01*
X124806202Y-104637328D01*
X124806206Y-104637335D01*
X124892452Y-104752544D01*
X124892455Y-104752547D01*
X125007664Y-104838793D01*
X125007671Y-104838797D01*
X125142517Y-104889091D01*
X125142516Y-104889091D01*
X125149444Y-104889835D01*
X125202127Y-104895500D01*
X128217872Y-104895499D01*
X128277483Y-104889091D01*
X128412331Y-104838796D01*
X128527546Y-104752546D01*
X128613796Y-104637331D01*
X128664091Y-104502483D01*
X128670500Y-104442873D01*
X128670499Y-101557128D01*
X128664091Y-101497517D01*
X128613796Y-101362669D01*
X128613795Y-101362668D01*
X128613793Y-101362664D01*
X128527547Y-101247455D01*
X128527544Y-101247452D01*
X128412335Y-101161206D01*
X128412328Y-101161202D01*
X128277482Y-101110908D01*
X128277483Y-101110908D01*
X128217883Y-101104501D01*
X128217881Y-101104500D01*
X128217873Y-101104500D01*
X128217865Y-101104500D01*
X127264500Y-101104500D01*
X127197461Y-101084815D01*
X127151706Y-101032011D01*
X127140500Y-100980500D01*
X127140500Y-98474700D01*
X127144243Y-98444465D01*
X127145918Y-98437798D01*
X127159091Y-98402483D01*
X127162298Y-98372652D01*
X127164407Y-98364265D01*
X127177918Y-98341305D01*
X127187334Y-98318575D01*
X137250000Y-98318575D01*
X137250000Y-98541424D01*
X137279085Y-98762354D01*
X137279088Y-98762367D01*
X137336763Y-98977618D01*
X137422045Y-99183502D01*
X137422054Y-99183520D01*
X137533464Y-99376491D01*
X137533473Y-99376504D01*
X137584040Y-99442403D01*
X137584043Y-99442403D01*
X138385387Y-98641058D01*
X138390889Y-98661591D01*
X138469881Y-98798408D01*
X138581592Y-98910119D01*
X138718409Y-98989111D01*
X138738940Y-98994612D01*
X137937595Y-99795955D01*
X137937595Y-99795956D01*
X138003507Y-99846533D01*
X138196485Y-99957949D01*
X138196497Y-99957954D01*
X138402381Y-100043236D01*
X138617632Y-100100911D01*
X138617645Y-100100914D01*
X138838575Y-100130000D01*
X139061425Y-100130000D01*
X139282354Y-100100914D01*
X139282367Y-100100911D01*
X139497618Y-100043236D01*
X139703502Y-99957954D01*
X139703514Y-99957949D01*
X139896498Y-99846530D01*
X139962403Y-99795957D01*
X139962404Y-99795956D01*
X139161059Y-98994612D01*
X139181591Y-98989111D01*
X139318408Y-98910119D01*
X139430119Y-98798408D01*
X139509111Y-98661591D01*
X139514612Y-98641059D01*
X140315956Y-99442404D01*
X140315957Y-99442403D01*
X140366530Y-99376498D01*
X140477949Y-99183514D01*
X140477954Y-99183502D01*
X140563236Y-98977618D01*
X140620911Y-98762367D01*
X140620914Y-98762354D01*
X140650000Y-98541424D01*
X140650000Y-98318575D01*
X140620914Y-98097645D01*
X140620911Y-98097632D01*
X140563236Y-97882381D01*
X140477954Y-97676497D01*
X140477949Y-97676485D01*
X140366533Y-97483507D01*
X140315956Y-97417595D01*
X140315955Y-97417595D01*
X139514612Y-98218939D01*
X139509111Y-98198409D01*
X139430119Y-98061592D01*
X139318408Y-97949881D01*
X139181591Y-97870889D01*
X139161058Y-97865387D01*
X139962403Y-97064043D01*
X139962403Y-97064040D01*
X139896504Y-97013473D01*
X139896491Y-97013464D01*
X139703520Y-96902054D01*
X139703502Y-96902045D01*
X139497618Y-96816763D01*
X139282367Y-96759088D01*
X139282354Y-96759085D01*
X139061425Y-96730000D01*
X138838575Y-96730000D01*
X138617645Y-96759085D01*
X138617632Y-96759088D01*
X138402381Y-96816763D01*
X138196497Y-96902045D01*
X138196479Y-96902054D01*
X138003511Y-97013462D01*
X137937595Y-97064042D01*
X138738941Y-97865387D01*
X138718409Y-97870889D01*
X138581592Y-97949881D01*
X138469881Y-98061592D01*
X138390889Y-98198409D01*
X138385387Y-98218940D01*
X137584042Y-97417595D01*
X137533462Y-97483511D01*
X137422054Y-97676479D01*
X137422045Y-97676497D01*
X137336763Y-97882381D01*
X137279088Y-98097632D01*
X137279085Y-98097645D01*
X137250000Y-98318575D01*
X127187334Y-98318575D01*
X127188114Y-98316692D01*
X127195366Y-98311656D01*
X127199844Y-98304048D01*
X127223624Y-98292037D01*
X127245507Y-98276845D01*
X127257579Y-98274888D01*
X127262210Y-98272550D01*
X127268183Y-98273170D01*
X127284664Y-98270500D01*
X130266610Y-98270500D01*
X130266611Y-98270500D01*
X130437701Y-98243402D01*
X130602445Y-98189873D01*
X130756788Y-98111232D01*
X130896928Y-98009414D01*
X137369523Y-91536819D01*
X137430846Y-91503334D01*
X137457204Y-91500500D01*
X142086610Y-91500500D01*
X142086611Y-91500500D01*
X142257701Y-91473402D01*
X142422445Y-91419873D01*
X142576788Y-91341232D01*
X142716928Y-91239414D01*
X144139414Y-89816928D01*
X144236666Y-89683072D01*
X144241232Y-89676788D01*
X144319873Y-89522445D01*
X144373402Y-89357701D01*
X144400500Y-89186611D01*
X144400500Y-88711433D01*
X144420185Y-88644394D01*
X144472989Y-88598639D01*
X144540558Y-88588923D01*
X144540569Y-88588818D01*
X144540991Y-88588861D01*
X144542147Y-88588695D01*
X144545849Y-88589357D01*
X144650019Y-88599999D01*
X144750000Y-88599998D01*
X144750000Y-82999999D01*
X144650028Y-83000000D01*
X144650012Y-83000001D01*
X144547302Y-83010494D01*
X144380880Y-83065641D01*
X144380875Y-83065643D01*
X144231649Y-83157687D01*
X144227305Y-83161122D01*
X144162507Y-83187255D01*
X144093866Y-83174207D01*
X144073497Y-83161116D01*
X144068660Y-83157292D01*
X144068656Y-83157288D01*
X143919334Y-83065186D01*
X143752797Y-83010001D01*
X143752795Y-83010000D01*
X143650010Y-82999500D01*
X142949998Y-82999500D01*
X142949980Y-82999501D01*
X142847203Y-83010000D01*
X142847200Y-83010001D01*
X142680668Y-83065185D01*
X142680663Y-83065187D01*
X142531342Y-83157289D01*
X142526909Y-83160795D01*
X142462113Y-83186934D01*
X142393471Y-83173892D01*
X142373091Y-83160795D01*
X142368657Y-83157289D01*
X142368656Y-83157288D01*
X142219334Y-83065186D01*
X142052797Y-83010001D01*
X142052795Y-83010000D01*
X141950010Y-82999500D01*
X141249998Y-82999500D01*
X141249980Y-82999501D01*
X141147203Y-83010000D01*
X141147200Y-83010001D01*
X140980668Y-83065185D01*
X140980663Y-83065187D01*
X140831342Y-83157289D01*
X140707289Y-83281342D01*
X140615187Y-83430663D01*
X140615185Y-83430668D01*
X140615115Y-83430880D01*
X140560001Y-83597203D01*
X140560001Y-83597204D01*
X140560000Y-83597204D01*
X140549500Y-83699983D01*
X140549500Y-84575500D01*
X140529815Y-84642539D01*
X140477011Y-84688294D01*
X140425500Y-84699500D01*
X134507204Y-84699500D01*
X134440165Y-84679815D01*
X134419523Y-84663181D01*
X133936819Y-84180477D01*
X133903334Y-84119154D01*
X133900500Y-84092796D01*
X133900500Y-81149984D01*
X139100001Y-81149984D01*
X139110494Y-81252695D01*
X139165641Y-81419117D01*
X139165643Y-81419122D01*
X139257684Y-81568344D01*
X139381655Y-81692315D01*
X139530877Y-81784356D01*
X139530882Y-81784358D01*
X139697304Y-81839505D01*
X139697311Y-81839506D01*
X139800022Y-81849999D01*
X144750000Y-81849999D01*
X145250000Y-81849999D01*
X150199970Y-81849999D01*
X150199984Y-81849998D01*
X150302695Y-81839505D01*
X150469117Y-81784358D01*
X150469122Y-81784356D01*
X150618344Y-81692315D01*
X150742315Y-81568344D01*
X150834356Y-81419122D01*
X150834358Y-81419117D01*
X150889505Y-81252695D01*
X150889506Y-81252688D01*
X150899999Y-81149984D01*
X150900000Y-81149971D01*
X150900000Y-76900000D01*
X145250000Y-76900000D01*
X145250000Y-81849999D01*
X144750000Y-81849999D01*
X144750000Y-76900000D01*
X139100001Y-76900000D01*
X139100001Y-81149984D01*
X133900500Y-81149984D01*
X133900500Y-78933389D01*
X133873402Y-78762302D01*
X133873402Y-78762299D01*
X133819873Y-78597555D01*
X133741232Y-78443212D01*
X133639414Y-78303072D01*
X133516928Y-78180586D01*
X127486357Y-72150015D01*
X139100000Y-72150015D01*
X139100000Y-76400000D01*
X144750000Y-76400000D01*
X145250000Y-76400000D01*
X150899999Y-76400000D01*
X150899999Y-72150030D01*
X150899998Y-72150015D01*
X150889505Y-72047304D01*
X150834358Y-71880882D01*
X150834356Y-71880877D01*
X150742315Y-71731655D01*
X150618344Y-71607684D01*
X150469122Y-71515643D01*
X150469117Y-71515641D01*
X150302695Y-71460494D01*
X150302688Y-71460493D01*
X150199984Y-71450000D01*
X145250000Y-71450000D01*
X145250000Y-76400000D01*
X144750000Y-76400000D01*
X144750000Y-71450000D01*
X139800030Y-71450000D01*
X139800014Y-71450001D01*
X139697304Y-71460494D01*
X139530882Y-71515641D01*
X139530877Y-71515643D01*
X139381655Y-71607684D01*
X139257684Y-71731655D01*
X139165643Y-71880877D01*
X139165641Y-71880882D01*
X139110494Y-72047304D01*
X139110493Y-72047311D01*
X139100000Y-72150015D01*
X127486357Y-72150015D01*
X126444168Y-71107826D01*
X126410683Y-71046503D01*
X126407849Y-71020145D01*
X126407849Y-69932230D01*
X126427534Y-69865191D01*
X126429983Y-69861524D01*
X126436313Y-69852403D01*
X126450061Y-69838656D01*
X126542163Y-69689334D01*
X126597348Y-69522797D01*
X126607849Y-69420009D01*
X126607848Y-68717682D01*
X127507349Y-68717682D01*
X127507349Y-68922317D01*
X127539358Y-69124417D01*
X127602593Y-69319031D01*
X127695490Y-69501350D01*
X127695496Y-69501359D01*
X127727872Y-69545921D01*
X127727873Y-69545922D01*
X128407349Y-68866446D01*
X128407349Y-68872661D01*
X128434608Y-68974394D01*
X128487269Y-69065606D01*
X128561743Y-69140080D01*
X128652955Y-69192741D01*
X128754688Y-69220000D01*
X128760902Y-69220000D01*
X128081425Y-69899474D01*
X128125999Y-69931859D01*
X128308317Y-70024755D01*
X128502931Y-70087990D01*
X128705032Y-70120000D01*
X128909666Y-70120000D01*
X129111766Y-70087990D01*
X129306380Y-70024755D01*
X129488698Y-69931859D01*
X129533270Y-69899474D01*
X128853796Y-69220000D01*
X128860010Y-69220000D01*
X128961743Y-69192741D01*
X129052955Y-69140080D01*
X129127429Y-69065606D01*
X129180090Y-68974394D01*
X129207349Y-68872661D01*
X129207349Y-68866447D01*
X129886823Y-69545921D01*
X129919208Y-69501349D01*
X130012104Y-69319031D01*
X130075339Y-69124417D01*
X130107349Y-68922317D01*
X130107349Y-68717682D01*
X130075339Y-68515582D01*
X130012104Y-68320968D01*
X129919208Y-68138650D01*
X129886823Y-68094077D01*
X129886823Y-68094076D01*
X129207349Y-68773551D01*
X129207349Y-68767339D01*
X129180090Y-68665606D01*
X129127429Y-68574394D01*
X129052955Y-68499920D01*
X128961743Y-68447259D01*
X128860010Y-68420000D01*
X128853795Y-68420000D01*
X129533271Y-67740524D01*
X129533270Y-67740523D01*
X129488708Y-67708147D01*
X129488699Y-67708141D01*
X129306380Y-67615244D01*
X129111766Y-67552009D01*
X128909666Y-67520000D01*
X128705032Y-67520000D01*
X128502931Y-67552009D01*
X128308317Y-67615244D01*
X128125993Y-67708143D01*
X128081426Y-67740523D01*
X128081426Y-67740524D01*
X128760903Y-68420000D01*
X128754688Y-68420000D01*
X128652955Y-68447259D01*
X128561743Y-68499920D01*
X128487269Y-68574394D01*
X128434608Y-68665606D01*
X128407349Y-68767339D01*
X128407349Y-68773553D01*
X127727873Y-68094077D01*
X127727872Y-68094077D01*
X127695492Y-68138644D01*
X127602593Y-68320968D01*
X127539358Y-68515582D01*
X127507349Y-68717682D01*
X126607848Y-68717682D01*
X126607848Y-68219992D01*
X126597348Y-68117203D01*
X126542163Y-67950666D01*
X126539169Y-67945812D01*
X126526309Y-67924961D01*
X126521613Y-67908404D01*
X126512872Y-67894802D01*
X126507849Y-67859867D01*
X126507849Y-63801277D01*
X126527534Y-63734238D01*
X126544168Y-63713596D01*
X128125945Y-62131819D01*
X128187268Y-62098334D01*
X128213626Y-62095500D01*
X135962995Y-62095500D01*
X136030034Y-62115185D01*
X136075789Y-62167989D01*
X136077556Y-62172047D01*
X136169270Y-62393464D01*
X136169272Y-62393469D01*
X136331393Y-62696775D01*
X136331404Y-62696793D01*
X136522475Y-62982751D01*
X136522485Y-62982765D01*
X136740676Y-63248632D01*
X136983867Y-63491823D01*
X136983872Y-63491827D01*
X136983873Y-63491828D01*
X137249740Y-63710019D01*
X137535713Y-63901100D01*
X137535722Y-63901105D01*
X137535724Y-63901106D01*
X137839030Y-64063227D01*
X137839032Y-64063227D01*
X137839038Y-64063231D01*
X138156795Y-64194850D01*
X138485922Y-64294690D01*
X138823250Y-64361789D01*
X139165531Y-64395500D01*
X139165534Y-64395500D01*
X139509466Y-64395500D01*
X139509469Y-64395500D01*
X139851750Y-64361789D01*
X140189078Y-64294690D01*
X140518205Y-64194850D01*
X140835962Y-64063231D01*
X141139287Y-63901100D01*
X141425260Y-63710019D01*
X141691127Y-63491828D01*
X141934328Y-63248627D01*
X142152519Y-62982760D01*
X142343600Y-62696787D01*
X142505731Y-62393462D01*
X142637350Y-62075705D01*
X142737190Y-61746578D01*
X142791883Y-61471619D01*
X142824268Y-61409708D01*
X142884984Y-61375134D01*
X142954753Y-61378873D01*
X143011425Y-61419740D01*
X143037006Y-61484758D01*
X143037500Y-61495810D01*
X143037500Y-64247844D01*
X143043901Y-64307372D01*
X143043903Y-64307379D01*
X143094145Y-64442086D01*
X143094149Y-64442093D01*
X143180309Y-64557187D01*
X143180312Y-64557190D01*
X143295406Y-64643350D01*
X143295413Y-64643354D01*
X143430120Y-64693596D01*
X143430127Y-64693598D01*
X143489655Y-64699999D01*
X143489672Y-64700000D01*
X146287500Y-64700000D01*
X146287500Y-63436502D01*
X146390027Y-63450000D01*
X146684973Y-63450000D01*
X146787500Y-63436502D01*
X146787500Y-64700000D01*
X149585328Y-64700000D01*
X149585344Y-64699999D01*
X149644872Y-64693598D01*
X149644879Y-64693596D01*
X149779586Y-64643354D01*
X149779593Y-64643350D01*
X149894687Y-64557190D01*
X149894690Y-64557187D01*
X149980850Y-64442093D01*
X149980854Y-64442086D01*
X150031096Y-64307379D01*
X150031098Y-64307372D01*
X150037499Y-64247844D01*
X150037500Y-64247827D01*
X150037500Y-61450000D01*
X148774002Y-61450000D01*
X148787500Y-61347473D01*
X148787500Y-61052527D01*
X148774002Y-60950000D01*
X150037500Y-60950000D01*
X150037500Y-58152172D01*
X150037499Y-58152155D01*
X150031098Y-58092627D01*
X150031096Y-58092620D01*
X149980854Y-57957913D01*
X149980850Y-57957906D01*
X149894690Y-57842812D01*
X149894687Y-57842809D01*
X149779593Y-57756649D01*
X149779586Y-57756645D01*
X149644879Y-57706403D01*
X149644872Y-57706401D01*
X149585344Y-57700000D01*
X146787500Y-57700000D01*
X146787500Y-58963497D01*
X146684973Y-58950000D01*
X146390027Y-58950000D01*
X146287500Y-58963497D01*
X146287500Y-57700000D01*
X143489655Y-57700000D01*
X143430127Y-57706401D01*
X143430120Y-57706403D01*
X143295413Y-57756645D01*
X143295406Y-57756649D01*
X143180312Y-57842809D01*
X143180309Y-57842812D01*
X143094149Y-57957906D01*
X143094145Y-57957913D01*
X143043903Y-58092620D01*
X143043901Y-58092627D01*
X143037500Y-58152155D01*
X143037500Y-60294189D01*
X143017815Y-60361228D01*
X142965011Y-60406983D01*
X142895853Y-60416927D01*
X142832297Y-60387902D01*
X142794523Y-60329124D01*
X142791883Y-60318380D01*
X142737191Y-60043427D01*
X142737190Y-60043426D01*
X142737190Y-60043422D01*
X142637350Y-59714295D01*
X142505731Y-59396538D01*
X142477208Y-59343176D01*
X142343606Y-59093224D01*
X142343605Y-59093222D01*
X142343600Y-59093213D01*
X142152519Y-58807240D01*
X141934328Y-58541373D01*
X141934327Y-58541372D01*
X141934323Y-58541367D01*
X141691132Y-58298176D01*
X141425265Y-58079985D01*
X141425264Y-58079984D01*
X141425260Y-58079981D01*
X141139287Y-57888900D01*
X141139282Y-57888897D01*
X141139275Y-57888893D01*
X140835969Y-57726772D01*
X140835964Y-57726770D01*
X140518206Y-57595150D01*
X140189072Y-57495308D01*
X139851748Y-57428210D01*
X139851749Y-57428210D01*
X139593956Y-57402821D01*
X139509469Y-57394500D01*
X139165531Y-57394500D01*
X139087466Y-57402188D01*
X138823250Y-57428210D01*
X138485927Y-57495308D01*
X138156793Y-57595150D01*
X137839035Y-57726770D01*
X137839030Y-57726772D01*
X137535724Y-57888893D01*
X137535706Y-57888904D01*
X137249748Y-58079975D01*
X137249734Y-58079985D01*
X136983867Y-58298176D01*
X136740676Y-58541367D01*
X136522485Y-58807234D01*
X136522475Y-58807248D01*
X136331404Y-59093206D01*
X136331393Y-59093224D01*
X136169272Y-59396530D01*
X136169270Y-59396535D01*
X136169269Y-59396538D01*
X136097444Y-59569940D01*
X136077556Y-59617953D01*
X136033715Y-59672356D01*
X135967421Y-59694421D01*
X135962995Y-59694500D01*
X127570513Y-59694500D01*
X127383885Y-59724059D01*
X127204165Y-59782454D01*
X127035800Y-59868240D01*
X126882923Y-59979312D01*
X124391661Y-62470574D01*
X124280589Y-62623451D01*
X124194803Y-62791814D01*
X124136408Y-62971532D01*
X124106849Y-63158164D01*
X124106849Y-67859867D01*
X124088389Y-67924961D01*
X124072536Y-67950663D01*
X124072535Y-67950665D01*
X124072535Y-67950666D01*
X124017350Y-68117203D01*
X124017350Y-68117204D01*
X124017349Y-68117204D01*
X124006849Y-68219983D01*
X124006849Y-69420001D01*
X124006850Y-69420018D01*
X124017349Y-69522796D01*
X124017350Y-69522799D01*
X124072534Y-69689331D01*
X124072535Y-69689334D01*
X124131090Y-69784268D01*
X124164638Y-69838657D01*
X124170530Y-69844549D01*
X124204015Y-69905872D01*
X124206849Y-69932230D01*
X124206849Y-71440738D01*
X124206849Y-71613960D01*
X124233947Y-71785050D01*
X124287476Y-71949794D01*
X124366117Y-72104137D01*
X124467935Y-72244277D01*
X124467937Y-72244279D01*
X131663181Y-79439523D01*
X131696666Y-79500846D01*
X131699500Y-79527204D01*
X131699500Y-84513389D01*
X131699500Y-84686611D01*
X131726598Y-84857701D01*
X131780127Y-85022445D01*
X131858768Y-85176788D01*
X131960586Y-85316928D01*
X133283072Y-86639414D01*
X133423212Y-86741232D01*
X133496131Y-86778386D01*
X133577549Y-86819871D01*
X133577551Y-86819871D01*
X133577554Y-86819873D01*
X133742299Y-86873402D01*
X133913389Y-86900500D01*
X140425501Y-86900500D01*
X140492540Y-86920185D01*
X140538295Y-86972989D01*
X140549501Y-87024500D01*
X140549501Y-87900018D01*
X140560000Y-88002796D01*
X140560001Y-88002799D01*
X140615115Y-88169119D01*
X140615186Y-88169334D01*
X140707288Y-88318656D01*
X140831344Y-88442712D01*
X140980666Y-88534814D01*
X141147203Y-88589999D01*
X141249991Y-88600500D01*
X141943796Y-88600499D01*
X142010835Y-88620183D01*
X142056590Y-88672987D01*
X142066534Y-88742146D01*
X142037509Y-88805702D01*
X142031477Y-88812180D01*
X141580477Y-89263181D01*
X141519154Y-89296666D01*
X141492796Y-89299500D01*
X137036611Y-89299500D01*
X136863389Y-89299500D01*
X136823728Y-89305781D01*
X136692302Y-89326597D01*
X136527552Y-89380128D01*
X136373211Y-89458768D01*
X136293256Y-89516859D01*
X136233072Y-89560586D01*
X136233070Y-89560588D01*
X136233069Y-89560588D01*
X129760477Y-96033181D01*
X129699154Y-96066666D01*
X129672796Y-96069500D01*
X127284664Y-96069500D01*
X127217625Y-96049815D01*
X127171870Y-95997011D01*
X127161374Y-95958754D01*
X127161170Y-95956857D01*
X127159091Y-95937517D01*
X127108796Y-95802669D01*
X127108795Y-95802668D01*
X127108793Y-95802664D01*
X127022547Y-95687455D01*
X127022544Y-95687452D01*
X126907335Y-95601206D01*
X126907328Y-95601202D01*
X126772482Y-95550908D01*
X126772483Y-95550908D01*
X126712883Y-95544501D01*
X126712881Y-95544500D01*
X126712873Y-95544500D01*
X126712864Y-95544500D01*
X124367129Y-95544500D01*
X124367123Y-95544501D01*
X124307516Y-95550908D01*
X124172671Y-95601202D01*
X124172664Y-95601206D01*
X124057455Y-95687452D01*
X124057452Y-95687455D01*
X123971206Y-95802664D01*
X123971202Y-95802671D01*
X123920908Y-95937517D01*
X123914501Y-95997116D01*
X123914500Y-95997135D01*
X116730500Y-95997135D01*
X116730500Y-77542110D01*
X123915000Y-77542110D01*
X123915000Y-77797889D01*
X123955013Y-78050523D01*
X124034051Y-78293781D01*
X124034052Y-78293784D01*
X124150175Y-78521686D01*
X124227850Y-78628595D01*
X124227850Y-78628596D01*
X124862421Y-77994024D01*
X124875359Y-78025258D01*
X124957437Y-78148097D01*
X125061903Y-78252563D01*
X125184742Y-78334641D01*
X125215974Y-78347577D01*
X124581402Y-78982148D01*
X124688313Y-79059824D01*
X124916215Y-79175947D01*
X124916218Y-79175948D01*
X125159476Y-79254986D01*
X125412111Y-79295000D01*
X125667889Y-79295000D01*
X125920523Y-79254986D01*
X126163781Y-79175948D01*
X126163784Y-79175947D01*
X126391685Y-79059825D01*
X126498595Y-78982148D01*
X126498596Y-78982148D01*
X125864025Y-78347578D01*
X125895258Y-78334641D01*
X126018097Y-78252563D01*
X126122563Y-78148097D01*
X126204641Y-78025258D01*
X126217577Y-77994025D01*
X126852148Y-78628596D01*
X126852148Y-78628595D01*
X126929825Y-78521685D01*
X127045947Y-78293784D01*
X127045948Y-78293781D01*
X127124986Y-78050523D01*
X127165000Y-77797889D01*
X127165000Y-77542110D01*
X127124986Y-77289476D01*
X127045948Y-77046218D01*
X127045947Y-77046215D01*
X126929824Y-76818313D01*
X126852148Y-76711403D01*
X126852148Y-76711402D01*
X126217577Y-77345973D01*
X126204641Y-77314742D01*
X126122563Y-77191903D01*
X126018097Y-77087437D01*
X125895258Y-77005359D01*
X125864024Y-76992421D01*
X126498596Y-76357850D01*
X126391686Y-76280175D01*
X126163784Y-76164052D01*
X126163781Y-76164051D01*
X125920523Y-76085013D01*
X125667889Y-76045000D01*
X125412111Y-76045000D01*
X125159476Y-76085013D01*
X124916218Y-76164051D01*
X124916215Y-76164052D01*
X124688310Y-76280177D01*
X124581403Y-76357849D01*
X124581402Y-76357850D01*
X125215974Y-76992421D01*
X125184742Y-77005359D01*
X125061903Y-77087437D01*
X124957437Y-77191903D01*
X124875359Y-77314742D01*
X124862421Y-77345974D01*
X124227850Y-76711402D01*
X124227849Y-76711403D01*
X124150177Y-76818310D01*
X124034052Y-77046215D01*
X124034051Y-77046218D01*
X123955013Y-77289476D01*
X123915000Y-77542110D01*
X116730500Y-77542110D01*
X116730500Y-58617271D01*
X118267535Y-58617271D01*
X118267535Y-58862728D01*
X118299572Y-59106080D01*
X118363102Y-59343176D01*
X118457031Y-59569940D01*
X118457035Y-59569950D01*
X118579760Y-59782517D01*
X118729183Y-59977249D01*
X118729189Y-59977256D01*
X118902743Y-60150810D01*
X118902750Y-60150816D01*
X119097482Y-60300239D01*
X119310049Y-60422964D01*
X119310050Y-60422964D01*
X119310053Y-60422966D01*
X119536824Y-60516898D01*
X119773916Y-60580427D01*
X119956433Y-60604455D01*
X120017271Y-60612465D01*
X120017272Y-60612465D01*
X120262729Y-60612465D01*
X120311399Y-60606057D01*
X120506084Y-60580427D01*
X120743176Y-60516898D01*
X120969947Y-60422966D01*
X121182518Y-60300239D01*
X121377251Y-60150815D01*
X121550815Y-59977251D01*
X121700239Y-59782518D01*
X121822966Y-59569947D01*
X121916898Y-59343176D01*
X121980427Y-59106084D01*
X122012465Y-58862728D01*
X122012465Y-58617272D01*
X121980427Y-58373916D01*
X121916898Y-58136824D01*
X121822966Y-57910053D01*
X121810753Y-57888900D01*
X121700239Y-57697482D01*
X121550816Y-57502750D01*
X121550810Y-57502743D01*
X121377256Y-57329189D01*
X121377249Y-57329183D01*
X121182517Y-57179760D01*
X120969950Y-57057035D01*
X120969940Y-57057031D01*
X120743176Y-56963102D01*
X120506080Y-56899572D01*
X120262729Y-56867535D01*
X120262728Y-56867535D01*
X120017272Y-56867535D01*
X120017271Y-56867535D01*
X119773919Y-56899572D01*
X119536823Y-56963102D01*
X119310059Y-57057031D01*
X119310049Y-57057035D01*
X119097482Y-57179760D01*
X118902750Y-57329183D01*
X118902743Y-57329189D01*
X118729189Y-57502743D01*
X118729183Y-57502750D01*
X118579760Y-57697482D01*
X118457035Y-57910049D01*
X118457031Y-57910059D01*
X118363102Y-58136823D01*
X118299572Y-58373919D01*
X118267535Y-58617271D01*
X116730500Y-58617271D01*
X116730500Y-55424500D01*
X116750185Y-55357461D01*
X116802989Y-55311706D01*
X116854500Y-55300500D01*
X153075500Y-55300500D01*
X153142539Y-55320185D01*
G37*
%TD.AperFunction*%
%TD*%
M02*
