%TF.GenerationSoftware,KiCad,Pcbnew,9.0.9-9.0.9~ubuntu24.04.1*%
%TF.CreationDate,2026-09-23T13:12:42+02:00*%
%TF.ProjectId,g_n_ratrice_musculaire,67e96ee9-7261-4747-9269-63655f6d7573,rev?*%
%TF.SameCoordinates,Original*%
%TF.FileFunction,Legend,Bot*%
%TF.FilePolarity,Positive*%
%FSLAX46Y46*%
G04 Gerber Fmt 4.6, Leading zero omitted, Abs format (unit mm)*
G04 Created by KiCad (PCBNEW 9.0.9-9.0.9~ubuntu24.04.1) date 2026-09-23 13:12:42*
%MOMM*%
%LPD*%
G01*
G04 APERTURE LIST*
%ADD10C,0.150000*%
%ADD11C,0.120000*%
%ADD12C,0.127000*%
%ADD13C,0.200000*%
G04 APERTURE END LIST*
D10*
X127985920Y-74429580D02*
X128033539Y-74477200D01*
X128033539Y-74477200D02*
X128176396Y-74524819D01*
X128176396Y-74524819D02*
X128271634Y-74524819D01*
X128271634Y-74524819D02*
X128414491Y-74477200D01*
X128414491Y-74477200D02*
X128509729Y-74381961D01*
X128509729Y-74381961D02*
X128557348Y-74286723D01*
X128557348Y-74286723D02*
X128604967Y-74096247D01*
X128604967Y-74096247D02*
X128604967Y-73953390D01*
X128604967Y-73953390D02*
X128557348Y-73762914D01*
X128557348Y-73762914D02*
X128509729Y-73667676D01*
X128509729Y-73667676D02*
X128414491Y-73572438D01*
X128414491Y-73572438D02*
X128271634Y-73524819D01*
X128271634Y-73524819D02*
X128176396Y-73524819D01*
X128176396Y-73524819D02*
X128033539Y-73572438D01*
X128033539Y-73572438D02*
X127985920Y-73620057D01*
X127557348Y-74524819D02*
X127557348Y-73524819D01*
X127081158Y-74524819D02*
X127081158Y-73524819D01*
X127081158Y-73524819D02*
X126509730Y-74524819D01*
X126509730Y-74524819D02*
X126509730Y-73524819D01*
X125509730Y-74524819D02*
X126081158Y-74524819D01*
X125795444Y-74524819D02*
X125795444Y-73524819D01*
X125795444Y-73524819D02*
X125890682Y-73667676D01*
X125890682Y-73667676D02*
X125985920Y-73762914D01*
X125985920Y-73762914D02*
X126081158Y-73810533D01*
X147477738Y-56352557D02*
X147572976Y-56304938D01*
X147572976Y-56304938D02*
X147668214Y-56209700D01*
X147668214Y-56209700D02*
X147811071Y-56066842D01*
X147811071Y-56066842D02*
X147906309Y-56019223D01*
X147906309Y-56019223D02*
X148001547Y-56019223D01*
X147953928Y-56257319D02*
X148049166Y-56209700D01*
X148049166Y-56209700D02*
X148144404Y-56114461D01*
X148144404Y-56114461D02*
X148192023Y-55923985D01*
X148192023Y-55923985D02*
X148192023Y-55590652D01*
X148192023Y-55590652D02*
X148144404Y-55400176D01*
X148144404Y-55400176D02*
X148049166Y-55304938D01*
X148049166Y-55304938D02*
X147953928Y-55257319D01*
X147953928Y-55257319D02*
X147763452Y-55257319D01*
X147763452Y-55257319D02*
X147668214Y-55304938D01*
X147668214Y-55304938D02*
X147572976Y-55400176D01*
X147572976Y-55400176D02*
X147525357Y-55590652D01*
X147525357Y-55590652D02*
X147525357Y-55923985D01*
X147525357Y-55923985D02*
X147572976Y-56114461D01*
X147572976Y-56114461D02*
X147668214Y-56209700D01*
X147668214Y-56209700D02*
X147763452Y-56257319D01*
X147763452Y-56257319D02*
X147953928Y-56257319D01*
X146572976Y-56257319D02*
X147144404Y-56257319D01*
X146858690Y-56257319D02*
X146858690Y-55257319D01*
X146858690Y-55257319D02*
X146953928Y-55400176D01*
X146953928Y-55400176D02*
X147049166Y-55495414D01*
X147049166Y-55495414D02*
X147144404Y-55543033D01*
X130009819Y-88406905D02*
X129009819Y-88406905D01*
X129009819Y-88406905D02*
X129009819Y-88645000D01*
X129009819Y-88645000D02*
X129057438Y-88787857D01*
X129057438Y-88787857D02*
X129152676Y-88883095D01*
X129152676Y-88883095D02*
X129247914Y-88930714D01*
X129247914Y-88930714D02*
X129438390Y-88978333D01*
X129438390Y-88978333D02*
X129581247Y-88978333D01*
X129581247Y-88978333D02*
X129771723Y-88930714D01*
X129771723Y-88930714D02*
X129866961Y-88883095D01*
X129866961Y-88883095D02*
X129962200Y-88787857D01*
X129962200Y-88787857D02*
X130009819Y-88645000D01*
X130009819Y-88645000D02*
X130009819Y-88406905D01*
X130009819Y-89930714D02*
X130009819Y-89359286D01*
X130009819Y-89645000D02*
X129009819Y-89645000D01*
X129009819Y-89645000D02*
X129152676Y-89549762D01*
X129152676Y-89549762D02*
X129247914Y-89454524D01*
X129247914Y-89454524D02*
X129295533Y-89359286D01*
X143045238Y-91289580D02*
X143092857Y-91337200D01*
X143092857Y-91337200D02*
X143235714Y-91384819D01*
X143235714Y-91384819D02*
X143330952Y-91384819D01*
X143330952Y-91384819D02*
X143473809Y-91337200D01*
X143473809Y-91337200D02*
X143569047Y-91241961D01*
X143569047Y-91241961D02*
X143616666Y-91146723D01*
X143616666Y-91146723D02*
X143664285Y-90956247D01*
X143664285Y-90956247D02*
X143664285Y-90813390D01*
X143664285Y-90813390D02*
X143616666Y-90622914D01*
X143616666Y-90622914D02*
X143569047Y-90527676D01*
X143569047Y-90527676D02*
X143473809Y-90432438D01*
X143473809Y-90432438D02*
X143330952Y-90384819D01*
X143330952Y-90384819D02*
X143235714Y-90384819D01*
X143235714Y-90384819D02*
X143092857Y-90432438D01*
X143092857Y-90432438D02*
X143045238Y-90480057D01*
X142426190Y-90384819D02*
X142235714Y-90384819D01*
X142235714Y-90384819D02*
X142140476Y-90432438D01*
X142140476Y-90432438D02*
X142045238Y-90527676D01*
X142045238Y-90527676D02*
X141997619Y-90718152D01*
X141997619Y-90718152D02*
X141997619Y-91051485D01*
X141997619Y-91051485D02*
X142045238Y-91241961D01*
X142045238Y-91241961D02*
X142140476Y-91337200D01*
X142140476Y-91337200D02*
X142235714Y-91384819D01*
X142235714Y-91384819D02*
X142426190Y-91384819D01*
X142426190Y-91384819D02*
X142521428Y-91337200D01*
X142521428Y-91337200D02*
X142616666Y-91241961D01*
X142616666Y-91241961D02*
X142664285Y-91051485D01*
X142664285Y-91051485D02*
X142664285Y-90718152D01*
X142664285Y-90718152D02*
X142616666Y-90527676D01*
X142616666Y-90527676D02*
X142521428Y-90432438D01*
X142521428Y-90432438D02*
X142426190Y-90384819D01*
X141569047Y-90384819D02*
X141569047Y-91194342D01*
X141569047Y-91194342D02*
X141521428Y-91289580D01*
X141521428Y-91289580D02*
X141473809Y-91337200D01*
X141473809Y-91337200D02*
X141378571Y-91384819D01*
X141378571Y-91384819D02*
X141188095Y-91384819D01*
X141188095Y-91384819D02*
X141092857Y-91337200D01*
X141092857Y-91337200D02*
X141045238Y-91289580D01*
X141045238Y-91289580D02*
X140997619Y-91194342D01*
X140997619Y-91194342D02*
X140997619Y-90384819D01*
X140664285Y-90384819D02*
X140092857Y-90384819D01*
X140378571Y-91384819D02*
X140378571Y-90384819D01*
X139235714Y-91384819D02*
X139807142Y-91384819D01*
X139521428Y-91384819D02*
X139521428Y-90384819D01*
X139521428Y-90384819D02*
X139616666Y-90527676D01*
X139616666Y-90527676D02*
X139711904Y-90622914D01*
X139711904Y-90622914D02*
X139807142Y-90670533D01*
D11*
%TO.C,CIN1*%
X122647651Y-71135000D02*
X123447651Y-71135000D01*
X123047651Y-71535000D02*
X123047651Y-70735000D01*
X127057349Y-72900000D02*
X127057349Y-64740000D01*
X127097349Y-72900000D02*
X127097349Y-64740000D01*
X127137349Y-72899000D02*
X127137349Y-64741000D01*
X127177349Y-72898000D02*
X127177349Y-64742000D01*
X127217349Y-72897000D02*
X127217349Y-64743000D01*
X127257349Y-72895000D02*
X127257349Y-64745000D01*
X127297349Y-72893000D02*
X127297349Y-64747000D01*
X127337349Y-72890000D02*
X127337349Y-64750000D01*
X127377349Y-72888000D02*
X127377349Y-64752000D01*
X127417349Y-72884000D02*
X127417349Y-64756000D01*
X127457349Y-72881000D02*
X127457349Y-64759000D01*
X127497349Y-72876000D02*
X127497349Y-64764000D01*
X127537349Y-72872000D02*
X127537349Y-64768000D01*
X127577349Y-72867000D02*
X127577349Y-64773000D01*
X127617349Y-72862000D02*
X127617349Y-64778000D01*
X127657349Y-72856000D02*
X127657349Y-64784000D01*
X127697349Y-72850000D02*
X127697349Y-64790000D01*
X127737349Y-72843000D02*
X127737349Y-64797000D01*
X127777349Y-67780000D02*
X127777349Y-64803000D01*
X127777349Y-72837000D02*
X127777349Y-69860000D01*
X127817349Y-67780000D02*
X127817349Y-64811000D01*
X127817349Y-72829000D02*
X127817349Y-69860000D01*
X127857349Y-67780000D02*
X127857349Y-64818000D01*
X127857349Y-72822000D02*
X127857349Y-69860000D01*
X127897349Y-67780000D02*
X127897349Y-64827000D01*
X127897349Y-72813000D02*
X127897349Y-69860000D01*
X127937349Y-67780000D02*
X127937349Y-64835000D01*
X127937349Y-72805000D02*
X127937349Y-69860000D01*
X127977349Y-67780000D02*
X127977349Y-64844000D01*
X127977349Y-72796000D02*
X127977349Y-69860000D01*
X128017349Y-67780000D02*
X128017349Y-64853000D01*
X128017349Y-72787000D02*
X128017349Y-69860000D01*
X128057349Y-67780000D02*
X128057349Y-64863000D01*
X128057349Y-72777000D02*
X128057349Y-69860000D01*
X128097349Y-67780000D02*
X128097349Y-64873000D01*
X128097349Y-72767000D02*
X128097349Y-69860000D01*
X128137349Y-67780000D02*
X128137349Y-64884000D01*
X128137349Y-72756000D02*
X128137349Y-69860000D01*
X128177349Y-67780000D02*
X128177349Y-64895000D01*
X128177349Y-72745000D02*
X128177349Y-69860000D01*
X128217349Y-67780000D02*
X128217349Y-64907000D01*
X128217349Y-72733000D02*
X128217349Y-69860000D01*
X128257349Y-67780000D02*
X128257349Y-64919000D01*
X128257349Y-72721000D02*
X128257349Y-69860000D01*
X128297349Y-67780000D02*
X128297349Y-64931000D01*
X128297349Y-72709000D02*
X128297349Y-69860000D01*
X128337349Y-67780000D02*
X128337349Y-64944000D01*
X128337349Y-72696000D02*
X128337349Y-69860000D01*
X128377349Y-67780000D02*
X128377349Y-64957000D01*
X128377349Y-72683000D02*
X128377349Y-69860000D01*
X128417349Y-67780000D02*
X128417349Y-64971000D01*
X128417349Y-72669000D02*
X128417349Y-69860000D01*
X128457349Y-67780000D02*
X128457349Y-64985000D01*
X128457349Y-72655000D02*
X128457349Y-69860000D01*
X128497349Y-67780000D02*
X128497349Y-65000000D01*
X128497349Y-72640000D02*
X128497349Y-69860000D01*
X128537349Y-67780000D02*
X128537349Y-65015000D01*
X128537349Y-72625000D02*
X128537349Y-69860000D01*
X128577349Y-67780000D02*
X128577349Y-65031000D01*
X128577349Y-72609000D02*
X128577349Y-69860000D01*
X128617349Y-67780000D02*
X128617349Y-65047000D01*
X128617349Y-72593000D02*
X128617349Y-69860000D01*
X128657349Y-67780000D02*
X128657349Y-65063000D01*
X128657349Y-72577000D02*
X128657349Y-69860000D01*
X128697349Y-67780000D02*
X128697349Y-65080000D01*
X128697349Y-72560000D02*
X128697349Y-69860000D01*
X128737349Y-67780000D02*
X128737349Y-65098000D01*
X128737349Y-72542000D02*
X128737349Y-69860000D01*
X128777349Y-67780000D02*
X128777349Y-65116000D01*
X128777349Y-72524000D02*
X128777349Y-69860000D01*
X128817349Y-67780000D02*
X128817349Y-65135000D01*
X128817349Y-72505000D02*
X128817349Y-69860000D01*
X128857349Y-67780000D02*
X128857349Y-65154000D01*
X128857349Y-72486000D02*
X128857349Y-69860000D01*
X128897349Y-67780000D02*
X128897349Y-65174000D01*
X128897349Y-72466000D02*
X128897349Y-69860000D01*
X128937349Y-67780000D02*
X128937349Y-65194000D01*
X128937349Y-72446000D02*
X128937349Y-69860000D01*
X128977349Y-67780000D02*
X128977349Y-65215000D01*
X128977349Y-72425000D02*
X128977349Y-69860000D01*
X129017349Y-67780000D02*
X129017349Y-65236000D01*
X129017349Y-72404000D02*
X129017349Y-69860000D01*
X129057349Y-67780000D02*
X129057349Y-65258000D01*
X129057349Y-72382000D02*
X129057349Y-69860000D01*
X129097349Y-67780000D02*
X129097349Y-65281000D01*
X129097349Y-72359000D02*
X129097349Y-69860000D01*
X129137349Y-67780000D02*
X129137349Y-65304000D01*
X129137349Y-72336000D02*
X129137349Y-69860000D01*
X129177349Y-67780000D02*
X129177349Y-65327000D01*
X129177349Y-72313000D02*
X129177349Y-69860000D01*
X129217349Y-67780000D02*
X129217349Y-65352000D01*
X129217349Y-72288000D02*
X129217349Y-69860000D01*
X129257349Y-67780000D02*
X129257349Y-65377000D01*
X129257349Y-72263000D02*
X129257349Y-69860000D01*
X129297349Y-67780000D02*
X129297349Y-65402000D01*
X129297349Y-72238000D02*
X129297349Y-69860000D01*
X129337349Y-67780000D02*
X129337349Y-65428000D01*
X129337349Y-72212000D02*
X129337349Y-69860000D01*
X129377349Y-67780000D02*
X129377349Y-65455000D01*
X129377349Y-72185000D02*
X129377349Y-69860000D01*
X129417349Y-67780000D02*
X129417349Y-65483000D01*
X129417349Y-72157000D02*
X129417349Y-69860000D01*
X129457349Y-67780000D02*
X129457349Y-65511000D01*
X129457349Y-72129000D02*
X129457349Y-69860000D01*
X129497349Y-67780000D02*
X129497349Y-65540000D01*
X129497349Y-72100000D02*
X129497349Y-69860000D01*
X129537349Y-67780000D02*
X129537349Y-65570000D01*
X129537349Y-72070000D02*
X129537349Y-69860000D01*
X129577349Y-67780000D02*
X129577349Y-65601000D01*
X129577349Y-72039000D02*
X129577349Y-69860000D01*
X129617349Y-67780000D02*
X129617349Y-65632000D01*
X129617349Y-72008000D02*
X129617349Y-69860000D01*
X129657349Y-67780000D02*
X129657349Y-65664000D01*
X129657349Y-71976000D02*
X129657349Y-69860000D01*
X129697349Y-67780000D02*
X129697349Y-65697000D01*
X129697349Y-71943000D02*
X129697349Y-69860000D01*
X129737349Y-67780000D02*
X129737349Y-65731000D01*
X129737349Y-71909000D02*
X129737349Y-69860000D01*
X129777349Y-67780000D02*
X129777349Y-65765000D01*
X129777349Y-71875000D02*
X129777349Y-69860000D01*
X129817349Y-67780000D02*
X129817349Y-65801000D01*
X129817349Y-71839000D02*
X129817349Y-69860000D01*
X129857349Y-71802000D02*
X129857349Y-65838000D01*
X129897349Y-71765000D02*
X129897349Y-65875000D01*
X129937349Y-71726000D02*
X129937349Y-65914000D01*
X129977349Y-71687000D02*
X129977349Y-65953000D01*
X130017349Y-71646000D02*
X130017349Y-65994000D01*
X130057349Y-71604000D02*
X130057349Y-66036000D01*
X130097349Y-71561000D02*
X130097349Y-66079000D01*
X130137349Y-71516000D02*
X130137349Y-66124000D01*
X130177349Y-71471000D02*
X130177349Y-66169000D01*
X130217349Y-71424000D02*
X130217349Y-66216000D01*
X130257349Y-71375000D02*
X130257349Y-66265000D01*
X130297349Y-71325000D02*
X130297349Y-66315000D01*
X130337349Y-71273000D02*
X130337349Y-66367000D01*
X130377349Y-71220000D02*
X130377349Y-66420000D01*
X130417349Y-71164000D02*
X130417349Y-66476000D01*
X130457349Y-71107000D02*
X130457349Y-66533000D01*
X130497349Y-71047000D02*
X130497349Y-66593000D01*
X130537349Y-70985000D02*
X130537349Y-66655000D01*
X130577349Y-70921000D02*
X130577349Y-66719000D01*
X130617349Y-70854000D02*
X130617349Y-66786000D01*
X130657349Y-70784000D02*
X130657349Y-66856000D01*
X130697349Y-70710000D02*
X130697349Y-66930000D01*
X130737349Y-70633000D02*
X130737349Y-67007000D01*
X130777349Y-70551000D02*
X130777349Y-67089000D01*
X130817349Y-70464000D02*
X130817349Y-67176000D01*
X130857349Y-70372000D02*
X130857349Y-67268000D01*
X130897349Y-70273000D02*
X130897349Y-67367000D01*
X130937349Y-70166000D02*
X130937349Y-67474000D01*
X130977349Y-70048000D02*
X130977349Y-67592000D01*
X131017349Y-69917000D02*
X131017349Y-67723000D01*
X131057349Y-69767000D02*
X131057349Y-67873000D01*
X131097349Y-69588000D02*
X131097349Y-68052000D01*
X131137349Y-69353000D02*
X131137349Y-68287000D01*
X131177349Y-68820000D02*
G75*
G02*
X122937349Y-68820000I-4120000J0D01*
G01*
X122937349Y-68820000D02*
G75*
G02*
X131177349Y-68820000I4120000J0D01*
G01*
D12*
%TO.C,Q1*%
X135237500Y-57200000D02*
X135237500Y-65200000D01*
X135237500Y-65200000D02*
X150637500Y-65200000D01*
X150637500Y-57200000D02*
X135237500Y-57200000D01*
X150637500Y-65200000D02*
X150637500Y-57200000D01*
D13*
X145577500Y-63422500D02*
G75*
G02*
X145377500Y-63422500I-100000J0D01*
G01*
X145377500Y-63422500D02*
G75*
G02*
X145577500Y-63422500I100000J0D01*
G01*
X151487500Y-61200000D02*
G75*
G02*
X151287500Y-61200000I-100000J0D01*
G01*
X151287500Y-61200000D02*
G75*
G02*
X151487500Y-61200000I100000J0D01*
G01*
D12*
%TO.C,D1*%
X122740000Y-82670000D02*
X128340000Y-82670000D01*
X122740000Y-92170000D02*
X122740000Y-82670000D01*
X128340000Y-82670000D02*
X128340000Y-92170000D01*
X128340000Y-92170000D02*
X122740000Y-92170000D01*
D13*
X125760000Y-99540000D02*
G75*
G02*
X125560000Y-99540000I-100000J0D01*
G01*
X125560000Y-99540000D02*
G75*
G02*
X125760000Y-99540000I100000J0D01*
G01*
D11*
%TO.C,COUT1*%
X135090000Y-98113000D02*
X135090000Y-98747000D01*
X135130000Y-97673000D02*
X135130000Y-99187000D01*
X135170000Y-97403000D02*
X135170000Y-99457000D01*
X135210000Y-97190000D02*
X135210000Y-99670000D01*
X135250000Y-97008000D02*
X135250000Y-99852000D01*
X135290000Y-96848000D02*
X135290000Y-100012000D01*
X135330000Y-96703000D02*
X135330000Y-100157000D01*
X135370000Y-96570000D02*
X135370000Y-100290000D01*
X135410000Y-96446000D02*
X135410000Y-100414000D01*
X135450000Y-96331000D02*
X135450000Y-100529000D01*
X135490000Y-96222000D02*
X135490000Y-100638000D01*
X135530000Y-96118000D02*
X135530000Y-100742000D01*
X135570000Y-96020000D02*
X135570000Y-100840000D01*
X135610000Y-95926000D02*
X135610000Y-100934000D01*
X135650000Y-95836000D02*
X135650000Y-101024000D01*
X135690000Y-95750000D02*
X135690000Y-101110000D01*
X135730000Y-95667000D02*
X135730000Y-101193000D01*
X135770000Y-95587000D02*
X135770000Y-101273000D01*
X135810000Y-95509000D02*
X135810000Y-101351000D01*
X135850000Y-95434000D02*
X135850000Y-101426000D01*
X135890000Y-95361000D02*
X135890000Y-101499000D01*
X135930000Y-95291000D02*
X135930000Y-101569000D01*
X135970000Y-95222000D02*
X135970000Y-101638000D01*
X136010000Y-95156000D02*
X136010000Y-101704000D01*
X136050000Y-95091000D02*
X136050000Y-101769000D01*
X136090000Y-95028000D02*
X136090000Y-101832000D01*
X136130000Y-94967000D02*
X136130000Y-101893000D01*
X136170000Y-94907000D02*
X136170000Y-101953000D01*
X136210000Y-94848000D02*
X136210000Y-102012000D01*
X136250000Y-94791000D02*
X136250000Y-102069000D01*
X136290000Y-94735000D02*
X136290000Y-102125000D01*
X136330000Y-94680000D02*
X136330000Y-102180000D01*
X136370000Y-94627000D02*
X136370000Y-102233000D01*
X136410000Y-94574000D02*
X136410000Y-102286000D01*
X136450000Y-94523000D02*
X136450000Y-102337000D01*
X136490000Y-94473000D02*
X136490000Y-102387000D01*
X136530000Y-94424000D02*
X136530000Y-102436000D01*
X136570000Y-94376000D02*
X136570000Y-102484000D01*
X136610000Y-94329000D02*
X136610000Y-102531000D01*
X136650000Y-94282000D02*
X136650000Y-102578000D01*
X136690000Y-94237000D02*
X136690000Y-102623000D01*
X136730000Y-94192000D02*
X136730000Y-102668000D01*
X136770000Y-94149000D02*
X136770000Y-102711000D01*
X136810000Y-94106000D02*
X136810000Y-102754000D01*
X136850000Y-94064000D02*
X136850000Y-102796000D01*
X136890000Y-94022000D02*
X136890000Y-102838000D01*
X136930000Y-93982000D02*
X136930000Y-102878000D01*
X136970000Y-93942000D02*
X136970000Y-102918000D01*
X137010000Y-93902000D02*
X137010000Y-102958000D01*
X137050000Y-93864000D02*
X137050000Y-102996000D01*
X137090000Y-93826000D02*
X137090000Y-103034000D01*
X137130000Y-93789000D02*
X137130000Y-103071000D01*
X137170000Y-93752000D02*
X137170000Y-103108000D01*
X137210000Y-93716000D02*
X137210000Y-103144000D01*
X137250000Y-93681000D02*
X137250000Y-103179000D01*
X137290000Y-93646000D02*
X137290000Y-103214000D01*
X137330000Y-93612000D02*
X137330000Y-103248000D01*
X137370000Y-93578000D02*
X137370000Y-103282000D01*
X137410000Y-93545000D02*
X137410000Y-103315000D01*
X137450000Y-93512000D02*
X137450000Y-103348000D01*
X137490000Y-93480000D02*
X137490000Y-103380000D01*
X137530000Y-93449000D02*
X137530000Y-96990000D01*
X137530000Y-99870000D02*
X137530000Y-103411000D01*
X137570000Y-93418000D02*
X137570000Y-96990000D01*
X137570000Y-99870000D02*
X137570000Y-103442000D01*
X137610000Y-93388000D02*
X137610000Y-96990000D01*
X137610000Y-99870000D02*
X137610000Y-103472000D01*
X137650000Y-93358000D02*
X137650000Y-96990000D01*
X137650000Y-99870000D02*
X137650000Y-103502000D01*
X137690000Y-93328000D02*
X137690000Y-96990000D01*
X137690000Y-99870000D02*
X137690000Y-103532000D01*
X137730000Y-93299000D02*
X137730000Y-96990000D01*
X137730000Y-99870000D02*
X137730000Y-103561000D01*
X137770000Y-93271000D02*
X137770000Y-96990000D01*
X137770000Y-99870000D02*
X137770000Y-103589000D01*
X137810000Y-93242000D02*
X137810000Y-96990000D01*
X137810000Y-99870000D02*
X137810000Y-103618000D01*
X137850000Y-93215000D02*
X137850000Y-96990000D01*
X137850000Y-99870000D02*
X137850000Y-103645000D01*
X137890000Y-93188000D02*
X137890000Y-96990000D01*
X137890000Y-99870000D02*
X137890000Y-103672000D01*
X137930000Y-93161000D02*
X137930000Y-96990000D01*
X137930000Y-99870000D02*
X137930000Y-103699000D01*
X137970000Y-93135000D02*
X137970000Y-96990000D01*
X137970000Y-99870000D02*
X137970000Y-103725000D01*
X138010000Y-93109000D02*
X138010000Y-96990000D01*
X138010000Y-99870000D02*
X138010000Y-103751000D01*
X138050000Y-93083000D02*
X138050000Y-96990000D01*
X138050000Y-99870000D02*
X138050000Y-103777000D01*
X138090000Y-93058000D02*
X138090000Y-96990000D01*
X138090000Y-99870000D02*
X138090000Y-103802000D01*
X138130000Y-93034000D02*
X138130000Y-96990000D01*
X138130000Y-99870000D02*
X138130000Y-103826000D01*
X138170000Y-93009000D02*
X138170000Y-96990000D01*
X138170000Y-99870000D02*
X138170000Y-103851000D01*
X138210000Y-92986000D02*
X138210000Y-96990000D01*
X138210000Y-99870000D02*
X138210000Y-103874000D01*
X138250000Y-92962000D02*
X138250000Y-96990000D01*
X138250000Y-99870000D02*
X138250000Y-103898000D01*
X138290000Y-92939000D02*
X138290000Y-96990000D01*
X138290000Y-99870000D02*
X138290000Y-103921000D01*
X138330000Y-92916000D02*
X138330000Y-96990000D01*
X138330000Y-99870000D02*
X138330000Y-103944000D01*
X138370000Y-92894000D02*
X138370000Y-96990000D01*
X138370000Y-99870000D02*
X138370000Y-103966000D01*
X138410000Y-92872000D02*
X138410000Y-96990000D01*
X138410000Y-99870000D02*
X138410000Y-103988000D01*
X138450000Y-92851000D02*
X138450000Y-96990000D01*
X138450000Y-99870000D02*
X138450000Y-104009000D01*
X138490000Y-92829000D02*
X138490000Y-96990000D01*
X138490000Y-99870000D02*
X138490000Y-104031000D01*
X138530000Y-92809000D02*
X138530000Y-96990000D01*
X138530000Y-99870000D02*
X138530000Y-104051000D01*
X138570000Y-92788000D02*
X138570000Y-96990000D01*
X138570000Y-99870000D02*
X138570000Y-104072000D01*
X138610000Y-92768000D02*
X138610000Y-96990000D01*
X138610000Y-99870000D02*
X138610000Y-104092000D01*
X138650000Y-92748000D02*
X138650000Y-96990000D01*
X138650000Y-99870000D02*
X138650000Y-104112000D01*
X138690000Y-92729000D02*
X138690000Y-96990000D01*
X138690000Y-99870000D02*
X138690000Y-104131000D01*
X138730000Y-92710000D02*
X138730000Y-96990000D01*
X138730000Y-99870000D02*
X138730000Y-104150000D01*
X138770000Y-92691000D02*
X138770000Y-96990000D01*
X138770000Y-99870000D02*
X138770000Y-104169000D01*
X138810000Y-92673000D02*
X138810000Y-96990000D01*
X138810000Y-99870000D02*
X138810000Y-104187000D01*
X138850000Y-92655000D02*
X138850000Y-96990000D01*
X138850000Y-99870000D02*
X138850000Y-104205000D01*
X138890000Y-92637000D02*
X138890000Y-96990000D01*
X138890000Y-99870000D02*
X138890000Y-104223000D01*
X138930000Y-92620000D02*
X138930000Y-96990000D01*
X138930000Y-99870000D02*
X138930000Y-104240000D01*
X138970000Y-92603000D02*
X138970000Y-96990000D01*
X138970000Y-99870000D02*
X138970000Y-104257000D01*
X139010000Y-92586000D02*
X139010000Y-96990000D01*
X139010000Y-99870000D02*
X139010000Y-104274000D01*
X139050000Y-92569000D02*
X139050000Y-96990000D01*
X139050000Y-99870000D02*
X139050000Y-104291000D01*
X139090000Y-92553000D02*
X139090000Y-96990000D01*
X139090000Y-99870000D02*
X139090000Y-104307000D01*
X139130000Y-92538000D02*
X139130000Y-96990000D01*
X139130000Y-99870000D02*
X139130000Y-104322000D01*
X139170000Y-92522000D02*
X139170000Y-96990000D01*
X139170000Y-99870000D02*
X139170000Y-104338000D01*
X139210000Y-92507000D02*
X139210000Y-96990000D01*
X139210000Y-99870000D02*
X139210000Y-104353000D01*
X139250000Y-92492000D02*
X139250000Y-96990000D01*
X139250000Y-99870000D02*
X139250000Y-104368000D01*
X139290000Y-92477000D02*
X139290000Y-96990000D01*
X139290000Y-99870000D02*
X139290000Y-104383000D01*
X139330000Y-92463000D02*
X139330000Y-96990000D01*
X139330000Y-99870000D02*
X139330000Y-104397000D01*
X139370000Y-92449000D02*
X139370000Y-96990000D01*
X139370000Y-99870000D02*
X139370000Y-104411000D01*
X139410000Y-92435000D02*
X139410000Y-96990000D01*
X139410000Y-99870000D02*
X139410000Y-104425000D01*
X139450000Y-92422000D02*
X139450000Y-96990000D01*
X139450000Y-99870000D02*
X139450000Y-104438000D01*
X139490000Y-92409000D02*
X139490000Y-96990000D01*
X139490000Y-99870000D02*
X139490000Y-104451000D01*
X139530000Y-92396000D02*
X139530000Y-96990000D01*
X139530000Y-99870000D02*
X139530000Y-104464000D01*
X139570000Y-92384000D02*
X139570000Y-96990000D01*
X139570000Y-99870000D02*
X139570000Y-104476000D01*
X139610000Y-92372000D02*
X139610000Y-96990000D01*
X139610000Y-99870000D02*
X139610000Y-104488000D01*
X139650000Y-92360000D02*
X139650000Y-96990000D01*
X139650000Y-99870000D02*
X139650000Y-104500000D01*
X139690000Y-92348000D02*
X139690000Y-96990000D01*
X139690000Y-99870000D02*
X139690000Y-104512000D01*
X139730000Y-92337000D02*
X139730000Y-96990000D01*
X139730000Y-99870000D02*
X139730000Y-104523000D01*
X139770000Y-92326000D02*
X139770000Y-96990000D01*
X139770000Y-99870000D02*
X139770000Y-104534000D01*
X139810000Y-92315000D02*
X139810000Y-96990000D01*
X139810000Y-99870000D02*
X139810000Y-104545000D01*
X139850000Y-92304000D02*
X139850000Y-96990000D01*
X139850000Y-99870000D02*
X139850000Y-104556000D01*
X139890000Y-92294000D02*
X139890000Y-96990000D01*
X139890000Y-99870000D02*
X139890000Y-104566000D01*
X139930000Y-92284000D02*
X139930000Y-96990000D01*
X139930000Y-99870000D02*
X139930000Y-104576000D01*
X139970000Y-92274000D02*
X139970000Y-96990000D01*
X139970000Y-99870000D02*
X139970000Y-104586000D01*
X140010000Y-92265000D02*
X140010000Y-96990000D01*
X140010000Y-99870000D02*
X140010000Y-104595000D01*
X140050000Y-92256000D02*
X140050000Y-96990000D01*
X140050000Y-99870000D02*
X140050000Y-104604000D01*
X140090000Y-92247000D02*
X140090000Y-96990000D01*
X140090000Y-99870000D02*
X140090000Y-104613000D01*
X140130000Y-92238000D02*
X140130000Y-96990000D01*
X140130000Y-99870000D02*
X140130000Y-104622000D01*
X140170000Y-92230000D02*
X140170000Y-96990000D01*
X140170000Y-99870000D02*
X140170000Y-104630000D01*
X140210000Y-92222000D02*
X140210000Y-96990000D01*
X140210000Y-99870000D02*
X140210000Y-104638000D01*
X140250000Y-92214000D02*
X140250000Y-96990000D01*
X140250000Y-99870000D02*
X140250000Y-104646000D01*
X140290000Y-92207000D02*
X140290000Y-96990000D01*
X140290000Y-99870000D02*
X140290000Y-104653000D01*
X140330000Y-92199000D02*
X140330000Y-96990000D01*
X140330000Y-99870000D02*
X140330000Y-104661000D01*
X140370000Y-92192000D02*
X140370000Y-96990000D01*
X140370000Y-99870000D02*
X140370000Y-104668000D01*
X140410000Y-92185000D02*
X140410000Y-104675000D01*
X140450000Y-92179000D02*
X140450000Y-104681000D01*
X140490000Y-92173000D02*
X140490000Y-104687000D01*
X140530000Y-92167000D02*
X140530000Y-104693000D01*
X140570000Y-92161000D02*
X140570000Y-104699000D01*
X140610000Y-92156000D02*
X140610000Y-104704000D01*
X140650000Y-92150000D02*
X140650000Y-104710000D01*
X140690000Y-92146000D02*
X140690000Y-104714000D01*
X140730000Y-92141000D02*
X140730000Y-104719000D01*
X140770000Y-92136000D02*
X140770000Y-104724000D01*
X140810000Y-92132000D02*
X140810000Y-104728000D01*
X140850000Y-92128000D02*
X140850000Y-104732000D01*
X140890000Y-92125000D02*
X140890000Y-104735000D01*
X140930000Y-92121000D02*
X140930000Y-104739000D01*
X140970000Y-92118000D02*
X140970000Y-104742000D01*
X141010000Y-92115000D02*
X141010000Y-104745000D01*
X141050000Y-92113000D02*
X141050000Y-104747000D01*
X141090000Y-92110000D02*
X141090000Y-104750000D01*
X141130000Y-92108000D02*
X141130000Y-104752000D01*
X141170000Y-92106000D02*
X141170000Y-104754000D01*
X141210000Y-92105000D02*
X141210000Y-104755000D01*
X141250000Y-92103000D02*
X141250000Y-104757000D01*
X141290000Y-92102000D02*
X141290000Y-104758000D01*
X141330000Y-92101000D02*
X141330000Y-104759000D01*
X141370000Y-92101000D02*
X141370000Y-104759000D01*
X141410000Y-92100000D02*
X141410000Y-104760000D01*
X141450000Y-92100000D02*
X141450000Y-104760000D01*
X147642082Y-94230000D02*
X147642082Y-95480000D01*
X148267082Y-94855000D02*
X147017082Y-94855000D01*
X147820000Y-98430000D02*
G75*
G02*
X135080000Y-98430000I-6370000J0D01*
G01*
X135080000Y-98430000D02*
G75*
G02*
X147820000Y-98430000I6370000J0D01*
G01*
%TD*%
M02*
