%TF.GenerationSoftware,KiCad,Pcbnew,9.0.9-9.0.9~ubuntu24.04.1*%
%TF.CreationDate,2026-09-23T13:12:48+02:00*%
%TF.ProjectId,g_n_ratrice_musculaire,67e96ee9-7261-4747-9269-63655f6d7573,rev?*%
%TF.SameCoordinates,Original*%
%TF.FileFunction,Other,User*%
%FSLAX46Y46*%
G04 Gerber Fmt 4.6, Leading zero omitted, Abs format (unit mm)*
G04 Created by KiCad (PCBNEW 9.0.9-9.0.9~ubuntu24.04.1) date 2026-09-23 13:12:48*
%MOMM*%
%LPD*%
G01*
G04 APERTURE LIST*
%ADD10C,0.050000*%
G04 APERTURE END LIST*
D10*
%TO.C,CIN1*%
X131307349Y-68820000D02*
G75*
G02*
X122807349Y-68820000I-4250000J0D01*
G01*
X122807349Y-68820000D02*
G75*
G02*
X131307349Y-68820000I4250000J0D01*
G01*
%TO.C,Q1*%
X134987500Y-56950000D02*
X134987500Y-65450000D01*
X134987500Y-65450000D02*
X150887500Y-65450000D01*
X150887500Y-56950000D02*
X134987500Y-56950000D01*
X150887500Y-65450000D02*
X150887500Y-56950000D01*
%TO.C,D1*%
X122490000Y-82420000D02*
X122490000Y-92420000D01*
X122490000Y-92420000D02*
X124165000Y-92420000D01*
X124165000Y-76295000D02*
X124165000Y-82420000D01*
X124165000Y-82420000D02*
X122490000Y-82420000D01*
X124165000Y-92420000D02*
X124165000Y-98545000D01*
X124165000Y-98545000D02*
X126915000Y-98545000D01*
X126915000Y-76295000D02*
X124165000Y-76295000D01*
X126915000Y-82420000D02*
X126915000Y-76295000D01*
X126915000Y-92420000D02*
X128590000Y-92420000D01*
X126915000Y-98545000D02*
X126915000Y-92420000D01*
X128590000Y-82420000D02*
X126915000Y-82420000D01*
X128590000Y-92420000D02*
X128590000Y-82420000D01*
%TO.C,COUT1*%
X147950000Y-98430000D02*
G75*
G02*
X134950000Y-98430000I-6500000J0D01*
G01*
X134950000Y-98430000D02*
G75*
G02*
X147950000Y-98430000I6500000J0D01*
G01*
%TD*%
M02*
