%TF.GenerationSoftware,KiCad,Pcbnew,9.0.8-9.0.8~ubuntu24.04.1*%
%TF.CreationDate,2026-04-03T15:17:36+02:00*%
%TF.ProjectId,g_n_ratrice_musculaire,67e96ee9-7261-4747-9269-63655f6d7573,rev?*%
%TF.SameCoordinates,Original*%
%TF.FileFunction,Copper,L1,Top*%
%TF.FilePolarity,Positive*%
%FSLAX46Y46*%
G04 Gerber Fmt 4.6, Leading zero omitted, Abs format (unit mm)*
G04 Created by KiCad (PCBNEW 9.0.8-9.0.8~ubuntu24.04.1) date 2026-04-03 15:17:36*
%MOMM*%
%LPD*%
G01*
G04 APERTURE LIST*
G04 Aperture macros list*
%AMRoundRect*
0 Rectangle with rounded corners*
0 $1 Rounding radius*
0 $2 $3 $4 $5 $6 $7 $8 $9 X,Y pos of 4 corners*
0 Add a 4 corners polygon primitive as box body*
4,1,4,$2,$3,$4,$5,$6,$7,$8,$9,$2,$3,0*
0 Add four circle primitives for the rounded corners*
1,1,$1+$1,$2,$3*
1,1,$1+$1,$4,$5*
1,1,$1+$1,$6,$7*
1,1,$1+$1,$8,$9*
0 Add four rect primitives between the rounded corners*
20,1,$1+$1,$2,$3,$4,$5,0*
20,1,$1+$1,$4,$5,$6,$7,0*
20,1,$1+$1,$6,$7,$8,$9,0*
20,1,$1+$1,$8,$9,$2,$3,0*%
G04 Aperture macros list end*
%TA.AperFunction,ComponentPad*%
%ADD10RoundRect,0.250000X0.550000X0.550000X-0.550000X0.550000X-0.550000X-0.550000X0.550000X-0.550000X0*%
%TD*%
%TA.AperFunction,ComponentPad*%
%ADD11C,1.600000*%
%TD*%
%TA.AperFunction,ComponentPad*%
%ADD12RoundRect,0.250000X-1.050000X-1.050000X1.050000X-1.050000X1.050000X1.050000X-1.050000X1.050000X0*%
%TD*%
%TA.AperFunction,ComponentPad*%
%ADD13C,2.600000*%
%TD*%
%TA.AperFunction,SMDPad,CuDef*%
%ADD14RoundRect,0.250000X0.300000X-2.050000X0.300000X2.050000X-0.300000X2.050000X-0.300000X-2.050000X0*%
%TD*%
%TA.AperFunction,SMDPad,CuDef*%
%ADD15RoundRect,0.250002X5.149998X-4.449998X5.149998X4.449998X-5.149998X4.449998X-5.149998X-4.449998X0*%
%TD*%
%TA.AperFunction,ComponentPad*%
%ADD16R,6.000000X6.000000*%
%TD*%
%TA.AperFunction,ComponentPad*%
%ADD17C,6.000000*%
%TD*%
%TA.AperFunction,ComponentPad*%
%ADD18R,2.250000X2.250000*%
%TD*%
%TA.AperFunction,ComponentPad*%
%ADD19C,2.250000*%
%TD*%
%TA.AperFunction,ComponentPad*%
%ADD20RoundRect,0.250001X-0.949999X-0.949999X0.949999X-0.949999X0.949999X0.949999X-0.949999X0.949999X0*%
%TD*%
%TA.AperFunction,ComponentPad*%
%ADD21C,2.400000*%
%TD*%
%TA.AperFunction,SMDPad,CuDef*%
%ADD22R,2.920000X2.790000*%
%TD*%
%TA.AperFunction,Conductor*%
%ADD23C,1.200000*%
%TD*%
%TA.AperFunction,Conductor*%
%ADD24C,1.500000*%
%TD*%
%TA.AperFunction,Conductor*%
%ADD25C,1.400000*%
%TD*%
%TA.AperFunction,Conductor*%
%ADD26C,0.200000*%
%TD*%
G04 APERTURE END LIST*
D10*
%TO.P,CIN1,1*%
%TO.N,Net-(U1-VIN)*%
X128700000Y-68600000D03*
D11*
%TO.P,CIN1,2*%
%TO.N,GND*%
X125200000Y-68600000D03*
%TD*%
D12*
%TO.P,J1,1,Pin_1*%
%TO.N,GND*%
X143700000Y-112972500D03*
D13*
%TO.P,J1,2,Pin_2*%
%TO.N,Net-(J1-Pin_2)*%
X148700000Y-112972500D03*
%TD*%
D14*
%TO.P,U1,1,VIN*%
%TO.N,Net-(U1-VIN)*%
X141600000Y-85800000D03*
%TO.P,U1,2,OUT*%
%TO.N,Net-(D1-K)*%
X143300000Y-85800000D03*
%TO.P,U1,3,GND*%
%TO.N,GND*%
X145000000Y-85800000D03*
D15*
X145000000Y-76650000D03*
D14*
%TO.P,U1,4,FB*%
%TO.N,Net-(J1-Pin_2)*%
X146700000Y-85800000D03*
%TO.P,U1,5,~{ON}/OFF*%
%TO.N,GND*%
X148400000Y-85800000D03*
%TD*%
D16*
%TO.P,Q1,1,1*%
%TO.N,GND*%
X139337500Y-61200000D03*
D17*
%TO.P,Q1,2,2*%
%TO.N,Net-(U1-VIN)*%
X146537500Y-60895000D03*
%TD*%
D18*
%TO.P,D1,1,K*%
%TO.N,Net-(D1-K)*%
X126200000Y-99350000D03*
D19*
%TO.P,D1,2,A*%
%TO.N,GND*%
X126200000Y-79850000D03*
%TD*%
D20*
%TO.P,COUT1,1*%
%TO.N,Net-(J1-Pin_2)*%
X138476041Y-98400000D03*
D21*
%TO.P,COUT1,2*%
%TO.N,GND*%
X143476041Y-98400000D03*
%TD*%
D22*
%TO.P,L1,1,1*%
%TO.N,Net-(D1-K)*%
X126200000Y-106425000D03*
%TO.P,L1,2,2*%
%TO.N,Net-(J1-Pin_2)*%
X126200000Y-113795000D03*
%TD*%
D23*
%TO.N,GND*%
X148400000Y-96400000D02*
X148400000Y-85800000D01*
D24*
X139337500Y-61200000D02*
X127400000Y-61200000D01*
D23*
X146400000Y-98400000D02*
X148400000Y-96400000D01*
D25*
X126200000Y-76400000D02*
X125200000Y-75400000D01*
X125200000Y-75400000D02*
X125200000Y-68600000D01*
D23*
X145000000Y-85800000D02*
X145000000Y-76650000D01*
D24*
X127400000Y-61200000D02*
X125200000Y-63400000D01*
D25*
X126200000Y-79850000D02*
X126200000Y-76400000D01*
D23*
X143476041Y-98400000D02*
X146400000Y-98400000D01*
D24*
X125200000Y-63400000D02*
X125200000Y-68600000D01*
%TO.N,Net-(U1-VIN)*%
X143075140Y-68600000D02*
X146537500Y-65137640D01*
D23*
X132800000Y-76800000D02*
X128700000Y-72700000D01*
D24*
X146537500Y-65137640D02*
X146537500Y-60895000D01*
D23*
X128700000Y-72700000D02*
X128700000Y-68600000D01*
X134000000Y-85800000D02*
X132800000Y-84600000D01*
D24*
X128700000Y-68600000D02*
X143075140Y-68600000D01*
D23*
X132800000Y-84600000D02*
X132800000Y-76800000D01*
X141600000Y-85800000D02*
X134000000Y-85800000D01*
D25*
%TO.N,Net-(J1-Pin_2)*%
X133200000Y-101800000D02*
X136600000Y-98400000D01*
D23*
X138476041Y-96123959D02*
X141200000Y-93400000D01*
D25*
X136600000Y-98400000D02*
X138476041Y-98400000D01*
D23*
X145400000Y-93400000D02*
X146700000Y-92100000D01*
X146700000Y-92100000D02*
X146700000Y-85800000D01*
D25*
X148700000Y-112972500D02*
X148700000Y-108500000D01*
X126200000Y-113795000D02*
X129805000Y-113795000D01*
D26*
X148076041Y-111723959D02*
X148000000Y-111800000D01*
D25*
X133200000Y-110400000D02*
X133200000Y-101800000D01*
D23*
X138476041Y-98400000D02*
X138476041Y-96123959D01*
X141200000Y-93400000D02*
X145400000Y-93400000D01*
D25*
X142000000Y-106600000D02*
X138476041Y-103076041D01*
X146800000Y-106600000D02*
X142000000Y-106600000D01*
X138476041Y-103076041D02*
X138476041Y-98400000D01*
X129805000Y-113795000D02*
X133200000Y-110400000D01*
X148700000Y-108500000D02*
X146800000Y-106600000D01*
D23*
%TO.N,Net-(D1-K)*%
X143300000Y-85800000D02*
X143300000Y-89100000D01*
D25*
X126200000Y-99350000D02*
X126200000Y-106425000D01*
D23*
X143300000Y-89100000D02*
X142000000Y-90400000D01*
X133800000Y-92000000D02*
X133800000Y-96400000D01*
X142000000Y-90400000D02*
X135400000Y-90400000D01*
X130850000Y-99350000D02*
X126200000Y-99350000D01*
X133800000Y-96400000D02*
X130850000Y-99350000D01*
X135400000Y-90400000D02*
X133800000Y-92000000D01*
%TD*%
%TA.AperFunction,Conductor*%
%TO.N,GND*%
G36*
X153142539Y-55320185D02*
G01*
X153188294Y-55372989D01*
X153199500Y-55424500D01*
X153199500Y-119375500D01*
X153179815Y-119442539D01*
X153127011Y-119488294D01*
X153075500Y-119499500D01*
X121224500Y-119499500D01*
X121157461Y-119479815D01*
X121111706Y-119427011D01*
X121100500Y-119375500D01*
X121100500Y-116649236D01*
X134127535Y-116649236D01*
X134127535Y-116894693D01*
X134159572Y-117138045D01*
X134223102Y-117375141D01*
X134317031Y-117601905D01*
X134317035Y-117601915D01*
X134439760Y-117814482D01*
X134589183Y-118009214D01*
X134589189Y-118009221D01*
X134762743Y-118182775D01*
X134762750Y-118182781D01*
X134957482Y-118332204D01*
X135170049Y-118454929D01*
X135170050Y-118454929D01*
X135170053Y-118454931D01*
X135396824Y-118548863D01*
X135633916Y-118612392D01*
X135816433Y-118636420D01*
X135877271Y-118644430D01*
X135877272Y-118644430D01*
X136122729Y-118644430D01*
X136171399Y-118638022D01*
X136366084Y-118612392D01*
X136603176Y-118548863D01*
X136829947Y-118454931D01*
X137042518Y-118332204D01*
X137237251Y-118182780D01*
X137410815Y-118009216D01*
X137560239Y-117814483D01*
X137682966Y-117601912D01*
X137776898Y-117375141D01*
X137840427Y-117138049D01*
X137872465Y-116894693D01*
X137872465Y-116649237D01*
X137840427Y-116405881D01*
X137776898Y-116168789D01*
X137682966Y-115942018D01*
X137661418Y-115904696D01*
X137560239Y-115729447D01*
X137410816Y-115534715D01*
X137410810Y-115534708D01*
X137237256Y-115361154D01*
X137237249Y-115361148D01*
X137042517Y-115211725D01*
X136829950Y-115089000D01*
X136829940Y-115088996D01*
X136603176Y-114995067D01*
X136366080Y-114931537D01*
X136122729Y-114899500D01*
X136122728Y-114899500D01*
X135877272Y-114899500D01*
X135877271Y-114899500D01*
X135633919Y-114931537D01*
X135396823Y-114995067D01*
X135170059Y-115088996D01*
X135170049Y-115089000D01*
X134957482Y-115211725D01*
X134762750Y-115361148D01*
X134762743Y-115361154D01*
X134589189Y-115534708D01*
X134589183Y-115534715D01*
X134439760Y-115729447D01*
X134317035Y-115942014D01*
X134317031Y-115942024D01*
X134223102Y-116168788D01*
X134159572Y-116405884D01*
X134127535Y-116649236D01*
X121100500Y-116649236D01*
X121100500Y-112352135D01*
X124239500Y-112352135D01*
X124239500Y-115237870D01*
X124239501Y-115237876D01*
X124245908Y-115297483D01*
X124296202Y-115432328D01*
X124296206Y-115432335D01*
X124382452Y-115547544D01*
X124382455Y-115547547D01*
X124497664Y-115633793D01*
X124497671Y-115633797D01*
X124632517Y-115684091D01*
X124632516Y-115684091D01*
X124639444Y-115684835D01*
X124692127Y-115690500D01*
X127707872Y-115690499D01*
X127767483Y-115684091D01*
X127902331Y-115633796D01*
X128017546Y-115547546D01*
X128103796Y-115432331D01*
X128154091Y-115297483D01*
X128160500Y-115237873D01*
X128160500Y-115119500D01*
X128180185Y-115052461D01*
X128232989Y-115006706D01*
X128284500Y-114995500D01*
X129899486Y-114995500D01*
X130086118Y-114965940D01*
X130265832Y-114907547D01*
X130434199Y-114821760D01*
X130587074Y-114710690D01*
X133425251Y-111872513D01*
X141900000Y-111872513D01*
X141900000Y-112722500D01*
X143099999Y-112722500D01*
X143074979Y-112782902D01*
X143050000Y-112908481D01*
X143050000Y-113036519D01*
X143074979Y-113162098D01*
X143099999Y-113222500D01*
X141900001Y-113222500D01*
X141900001Y-114072486D01*
X141910494Y-114175197D01*
X141965641Y-114341619D01*
X141965643Y-114341624D01*
X142057684Y-114490845D01*
X142181654Y-114614815D01*
X142330875Y-114706856D01*
X142330880Y-114706858D01*
X142497302Y-114762005D01*
X142497309Y-114762006D01*
X142600019Y-114772499D01*
X143449999Y-114772499D01*
X143450000Y-114772498D01*
X143450000Y-113572501D01*
X143510402Y-113597521D01*
X143635981Y-113622500D01*
X143764019Y-113622500D01*
X143889598Y-113597521D01*
X143950000Y-113572501D01*
X143950000Y-114772499D01*
X144799972Y-114772499D01*
X144799986Y-114772498D01*
X144902697Y-114762005D01*
X145069119Y-114706858D01*
X145069124Y-114706856D01*
X145218345Y-114614815D01*
X145342315Y-114490845D01*
X145434356Y-114341624D01*
X145434358Y-114341619D01*
X145489505Y-114175197D01*
X145489506Y-114175190D01*
X145499999Y-114072486D01*
X145500000Y-114072473D01*
X145500000Y-113222500D01*
X144300001Y-113222500D01*
X144325021Y-113162098D01*
X144350000Y-113036519D01*
X144350000Y-112908481D01*
X144325021Y-112782902D01*
X144300001Y-112722500D01*
X145499999Y-112722500D01*
X145499999Y-111872528D01*
X145499998Y-111872513D01*
X145489505Y-111769802D01*
X145434358Y-111603380D01*
X145434356Y-111603375D01*
X145342315Y-111454154D01*
X145218345Y-111330184D01*
X145069124Y-111238143D01*
X145069119Y-111238141D01*
X144902697Y-111182994D01*
X144902690Y-111182993D01*
X144799986Y-111172500D01*
X143950000Y-111172500D01*
X143950000Y-112372498D01*
X143889598Y-112347479D01*
X143764019Y-112322500D01*
X143635981Y-112322500D01*
X143510402Y-112347479D01*
X143450000Y-112372498D01*
X143450000Y-111172500D01*
X142600028Y-111172500D01*
X142600012Y-111172501D01*
X142497302Y-111182994D01*
X142330880Y-111238141D01*
X142330875Y-111238143D01*
X142181654Y-111330184D01*
X142057684Y-111454154D01*
X141965643Y-111603375D01*
X141965641Y-111603380D01*
X141910494Y-111769802D01*
X141910493Y-111769809D01*
X141900000Y-111872513D01*
X133425251Y-111872513D01*
X134115690Y-111182074D01*
X134226760Y-111029199D01*
X134312547Y-110860832D01*
X134370940Y-110681118D01*
X134384077Y-110598168D01*
X134400500Y-110494487D01*
X134400500Y-102348625D01*
X134420185Y-102281586D01*
X134436814Y-102260949D01*
X136818539Y-99879223D01*
X136879860Y-99845740D01*
X136949552Y-99850724D01*
X136993899Y-99879224D01*
X137057386Y-99942711D01*
X137057388Y-99942712D01*
X137057389Y-99942713D01*
X137212854Y-100038606D01*
X137211747Y-100040399D01*
X137256378Y-100079687D01*
X137275541Y-100145908D01*
X137275541Y-103170527D01*
X137305100Y-103357159D01*
X137363495Y-103536877D01*
X137449281Y-103705240D01*
X137560351Y-103858115D01*
X141084310Y-107382073D01*
X141217927Y-107515690D01*
X141370801Y-107626760D01*
X141450347Y-107667290D01*
X141539163Y-107712545D01*
X141539165Y-107712545D01*
X141539168Y-107712547D01*
X141635497Y-107743846D01*
X141718881Y-107770940D01*
X141905514Y-107800500D01*
X141905519Y-107800500D01*
X146251374Y-107800500D01*
X146318413Y-107820185D01*
X146339055Y-107836819D01*
X147463181Y-108960944D01*
X147496666Y-109022267D01*
X147499500Y-109048625D01*
X147499500Y-111432665D01*
X147491223Y-111477208D01*
X147487736Y-111486265D01*
X147440423Y-111568215D01*
X147404292Y-111703054D01*
X147401936Y-111709176D01*
X147389151Y-111725888D01*
X147373894Y-111752314D01*
X147343412Y-111782795D01*
X147343406Y-111782802D01*
X147199730Y-111970045D01*
X147081719Y-112174443D01*
X147081714Y-112174454D01*
X146991394Y-112392506D01*
X146930306Y-112620489D01*
X146899501Y-112854479D01*
X146899500Y-112854495D01*
X146899500Y-113090504D01*
X146899501Y-113090520D01*
X146930306Y-113324510D01*
X146991394Y-113552493D01*
X147081714Y-113770545D01*
X147081719Y-113770556D01*
X147152677Y-113893457D01*
X147199727Y-113974950D01*
X147199729Y-113974953D01*
X147199730Y-113974954D01*
X147343406Y-114162197D01*
X147343412Y-114162204D01*
X147510295Y-114329087D01*
X147510302Y-114329093D01*
X147526633Y-114341624D01*
X147697550Y-114472773D01*
X147828918Y-114548618D01*
X147901943Y-114590780D01*
X147901948Y-114590782D01*
X147901951Y-114590784D01*
X148120007Y-114681106D01*
X148347986Y-114742193D01*
X148581989Y-114773000D01*
X148581996Y-114773000D01*
X148818004Y-114773000D01*
X148818011Y-114773000D01*
X149052014Y-114742193D01*
X149279993Y-114681106D01*
X149498049Y-114590784D01*
X149702450Y-114472773D01*
X149889699Y-114329092D01*
X150056592Y-114162199D01*
X150200273Y-113974950D01*
X150318284Y-113770549D01*
X150408606Y-113552493D01*
X150469693Y-113324514D01*
X150500500Y-113090511D01*
X150500500Y-112854489D01*
X150469693Y-112620486D01*
X150408606Y-112392507D01*
X150318284Y-112174451D01*
X150318282Y-112174448D01*
X150318280Y-112174443D01*
X150242074Y-112042452D01*
X150200273Y-111970050D01*
X150056592Y-111782801D01*
X150056587Y-111782795D01*
X149936819Y-111663027D01*
X149903334Y-111601704D01*
X149900500Y-111575346D01*
X149900500Y-108405513D01*
X149870940Y-108218881D01*
X149812545Y-108039163D01*
X149726759Y-107870800D01*
X149724635Y-107867876D01*
X149615690Y-107717927D01*
X149482073Y-107584310D01*
X147582074Y-105684310D01*
X147429199Y-105573240D01*
X147260836Y-105487454D01*
X147081118Y-105429059D01*
X146894486Y-105399500D01*
X146894481Y-105399500D01*
X142548625Y-105399500D01*
X142481586Y-105379815D01*
X142460944Y-105363181D01*
X139712860Y-102615096D01*
X139679375Y-102553773D01*
X139676541Y-102527415D01*
X139676541Y-100145908D01*
X139696226Y-100078869D01*
X139740312Y-100040364D01*
X139739228Y-100038606D01*
X139816013Y-99991243D01*
X139894696Y-99942711D01*
X140018752Y-99818655D01*
X140110855Y-99669334D01*
X140166040Y-99502797D01*
X140176541Y-99400008D01*
X140176541Y-98288575D01*
X141776041Y-98288575D01*
X141776041Y-98511424D01*
X141805126Y-98732354D01*
X141805129Y-98732367D01*
X141862804Y-98947618D01*
X141948086Y-99153502D01*
X141948095Y-99153520D01*
X142059505Y-99346491D01*
X142059514Y-99346504D01*
X142110081Y-99412403D01*
X142110084Y-99412403D01*
X142911428Y-98611059D01*
X142916930Y-98631591D01*
X142995922Y-98768408D01*
X143107633Y-98880119D01*
X143244450Y-98959111D01*
X143264981Y-98964612D01*
X142463636Y-99765955D01*
X142463636Y-99765956D01*
X142529548Y-99816533D01*
X142722526Y-99927949D01*
X142722538Y-99927954D01*
X142928422Y-100013236D01*
X143143673Y-100070911D01*
X143143686Y-100070914D01*
X143364616Y-100100000D01*
X143587466Y-100100000D01*
X143808395Y-100070914D01*
X143808408Y-100070911D01*
X144023659Y-100013236D01*
X144229543Y-99927954D01*
X144229555Y-99927949D01*
X144422539Y-99816530D01*
X144488444Y-99765957D01*
X144488445Y-99765956D01*
X143687100Y-98964612D01*
X143707632Y-98959111D01*
X143844449Y-98880119D01*
X143956160Y-98768408D01*
X144035152Y-98631591D01*
X144040653Y-98611060D01*
X144841997Y-99412404D01*
X144841998Y-99412403D01*
X144892571Y-99346498D01*
X145003990Y-99153514D01*
X145003995Y-99153502D01*
X145089277Y-98947618D01*
X145146952Y-98732367D01*
X145146955Y-98732354D01*
X145176041Y-98511424D01*
X145176041Y-98288575D01*
X145146955Y-98067645D01*
X145146952Y-98067632D01*
X145089277Y-97852381D01*
X145003995Y-97646497D01*
X145003990Y-97646485D01*
X144892574Y-97453507D01*
X144841997Y-97387595D01*
X144841996Y-97387595D01*
X144040653Y-98188939D01*
X144035152Y-98168409D01*
X143956160Y-98031592D01*
X143844449Y-97919881D01*
X143707632Y-97840889D01*
X143687099Y-97835387D01*
X144488444Y-97034043D01*
X144488444Y-97034040D01*
X144422545Y-96983473D01*
X144422532Y-96983464D01*
X144229561Y-96872054D01*
X144229543Y-96872045D01*
X144023659Y-96786763D01*
X143808408Y-96729088D01*
X143808395Y-96729085D01*
X143587466Y-96700000D01*
X143364616Y-96700000D01*
X143143686Y-96729085D01*
X143143673Y-96729088D01*
X142928422Y-96786763D01*
X142722538Y-96872045D01*
X142722520Y-96872054D01*
X142529552Y-96983462D01*
X142463636Y-97034042D01*
X143264982Y-97835387D01*
X143244450Y-97840889D01*
X143107633Y-97919881D01*
X142995922Y-98031592D01*
X142916930Y-98168409D01*
X142911428Y-98188940D01*
X142110083Y-97387595D01*
X142059503Y-97453511D01*
X141948095Y-97646479D01*
X141948086Y-97646497D01*
X141862804Y-97852381D01*
X141805129Y-98067632D01*
X141805126Y-98067645D01*
X141776041Y-98288575D01*
X140176541Y-98288575D01*
X140176541Y-97399992D01*
X140166040Y-97297203D01*
X140110855Y-97130666D01*
X140110852Y-97130661D01*
X140018754Y-96981348D01*
X140018751Y-96981344D01*
X139894696Y-96857289D01*
X139894692Y-96857286D01*
X139745378Y-96765187D01*
X139745376Y-96765186D01*
X139670147Y-96740258D01*
X139612702Y-96700485D01*
X139585879Y-96635970D01*
X139598194Y-96567194D01*
X139621467Y-96534874D01*
X141619523Y-94536819D01*
X141680846Y-94503334D01*
X141707204Y-94500500D01*
X145486610Y-94500500D01*
X145486611Y-94500500D01*
X145657701Y-94473402D01*
X145822445Y-94419873D01*
X145976788Y-94341232D01*
X146116928Y-94239414D01*
X147539414Y-92816928D01*
X147636666Y-92683072D01*
X147641232Y-92676788D01*
X147719873Y-92522445D01*
X147773402Y-92357701D01*
X147800500Y-92186611D01*
X147800500Y-88711433D01*
X147820185Y-88644394D01*
X147872989Y-88598639D01*
X147940558Y-88588923D01*
X147940569Y-88588818D01*
X147940991Y-88588861D01*
X147942147Y-88588695D01*
X147945849Y-88589357D01*
X148050019Y-88599999D01*
X148650000Y-88599999D01*
X148749972Y-88599999D01*
X148749986Y-88599998D01*
X148852697Y-88589505D01*
X149019119Y-88534358D01*
X149019124Y-88534356D01*
X149168345Y-88442315D01*
X149292315Y-88318345D01*
X149384356Y-88169124D01*
X149384358Y-88169119D01*
X149439505Y-88002697D01*
X149439506Y-88002690D01*
X149449999Y-87899986D01*
X149450000Y-87899973D01*
X149450000Y-86050000D01*
X148650000Y-86050000D01*
X148650000Y-88599999D01*
X148050019Y-88599999D01*
X148150000Y-88599998D01*
X148150000Y-85550000D01*
X148650000Y-85550000D01*
X149449999Y-85550000D01*
X149449999Y-83700028D01*
X149449998Y-83700013D01*
X149439505Y-83597302D01*
X149384358Y-83430880D01*
X149384356Y-83430875D01*
X149292315Y-83281654D01*
X149168345Y-83157684D01*
X149019124Y-83065643D01*
X149019119Y-83065641D01*
X148852697Y-83010494D01*
X148852690Y-83010493D01*
X148749986Y-83000000D01*
X148650000Y-83000000D01*
X148650000Y-85550000D01*
X148150000Y-85550000D01*
X148150000Y-82999999D01*
X148050028Y-83000000D01*
X148050012Y-83000001D01*
X147947302Y-83010494D01*
X147780880Y-83065641D01*
X147780875Y-83065643D01*
X147631649Y-83157687D01*
X147627305Y-83161122D01*
X147562507Y-83187255D01*
X147493866Y-83174207D01*
X147473497Y-83161116D01*
X147468660Y-83157292D01*
X147468656Y-83157288D01*
X147319334Y-83065186D01*
X147152797Y-83010001D01*
X147152795Y-83010000D01*
X147050010Y-82999500D01*
X146349998Y-82999500D01*
X146349980Y-82999501D01*
X146247203Y-83010000D01*
X146247200Y-83010001D01*
X146080668Y-83065185D01*
X146080663Y-83065187D01*
X145976157Y-83129646D01*
X145931344Y-83157288D01*
X145931343Y-83157288D01*
X145931330Y-83157297D01*
X145926487Y-83161126D01*
X145861687Y-83187256D01*
X145793047Y-83174204D01*
X145772683Y-83161114D01*
X145768346Y-83157684D01*
X145619124Y-83065643D01*
X145619119Y-83065641D01*
X145452697Y-83010494D01*
X145452690Y-83010493D01*
X145349986Y-83000000D01*
X145250000Y-83000000D01*
X145250000Y-88599999D01*
X145349972Y-88599999D01*
X145349986Y-88599998D01*
X145459431Y-88588818D01*
X145459648Y-88590942D01*
X145519192Y-88595386D01*
X145574996Y-88637429D01*
X145599211Y-88702969D01*
X145599500Y-88711433D01*
X145599500Y-91592796D01*
X145579815Y-91659835D01*
X145563181Y-91680477D01*
X144980477Y-92263181D01*
X144919154Y-92296666D01*
X144892796Y-92299500D01*
X141286611Y-92299500D01*
X141113389Y-92299500D01*
X141073728Y-92305781D01*
X140942302Y-92326597D01*
X140777552Y-92380128D01*
X140623211Y-92458768D01*
X140556546Y-92507204D01*
X140483072Y-92560586D01*
X140483070Y-92560588D01*
X140483069Y-92560588D01*
X137636629Y-95407028D01*
X137636629Y-95407029D01*
X137636627Y-95407031D01*
X137592900Y-95467215D01*
X137534809Y-95547170D01*
X137456169Y-95701511D01*
X137402638Y-95866261D01*
X137375541Y-96037348D01*
X137375541Y-96619698D01*
X137355856Y-96686737D01*
X137303052Y-96732492D01*
X137290546Y-96737404D01*
X137206704Y-96765187D01*
X137206703Y-96765187D01*
X137057389Y-96857286D01*
X137057385Y-96857289D01*
X136933330Y-96981344D01*
X136933327Y-96981348D01*
X136837435Y-97136813D01*
X136835641Y-97135706D01*
X136796354Y-97180337D01*
X136730133Y-97199500D01*
X136505513Y-97199500D01*
X136318885Y-97229059D01*
X136139165Y-97287454D01*
X135970800Y-97373240D01*
X135817923Y-97484312D01*
X132284312Y-101017923D01*
X132173240Y-101170800D01*
X132087454Y-101339163D01*
X132029059Y-101518881D01*
X131999500Y-101705513D01*
X131999500Y-109851374D01*
X131979815Y-109918413D01*
X131963181Y-109939055D01*
X129344055Y-112558181D01*
X129282732Y-112591666D01*
X129256374Y-112594500D01*
X128284499Y-112594500D01*
X128217460Y-112574815D01*
X128171705Y-112522011D01*
X128160499Y-112470500D01*
X128160499Y-112352129D01*
X128160498Y-112352123D01*
X128160497Y-112352116D01*
X128154091Y-112292517D01*
X128110056Y-112174454D01*
X128103797Y-112157671D01*
X128103793Y-112157664D01*
X128017547Y-112042455D01*
X128017544Y-112042452D01*
X127902335Y-111956206D01*
X127902328Y-111956202D01*
X127767482Y-111905908D01*
X127767483Y-111905908D01*
X127707883Y-111899501D01*
X127707881Y-111899500D01*
X127707873Y-111899500D01*
X127707864Y-111899500D01*
X124692129Y-111899500D01*
X124692123Y-111899501D01*
X124632516Y-111905908D01*
X124497671Y-111956202D01*
X124497664Y-111956206D01*
X124382455Y-112042452D01*
X124382452Y-112042455D01*
X124296206Y-112157664D01*
X124296202Y-112157671D01*
X124245908Y-112292517D01*
X124239501Y-112352116D01*
X124239501Y-112352123D01*
X124239500Y-112352135D01*
X121100500Y-112352135D01*
X121100500Y-104982135D01*
X124239500Y-104982135D01*
X124239500Y-107867870D01*
X124239501Y-107867876D01*
X124245908Y-107927483D01*
X124296202Y-108062328D01*
X124296206Y-108062335D01*
X124382452Y-108177544D01*
X124382455Y-108177547D01*
X124497664Y-108263793D01*
X124497671Y-108263797D01*
X124632517Y-108314091D01*
X124632516Y-108314091D01*
X124639444Y-108314835D01*
X124692127Y-108320500D01*
X127707872Y-108320499D01*
X127767483Y-108314091D01*
X127902331Y-108263796D01*
X128017546Y-108177546D01*
X128103796Y-108062331D01*
X128154091Y-107927483D01*
X128160500Y-107867873D01*
X128160499Y-104982128D01*
X128154091Y-104922517D01*
X128103796Y-104787669D01*
X128103795Y-104787668D01*
X128103793Y-104787664D01*
X128017547Y-104672455D01*
X128017544Y-104672452D01*
X127902335Y-104586206D01*
X127902328Y-104586202D01*
X127767482Y-104535908D01*
X127767483Y-104535908D01*
X127707883Y-104529501D01*
X127707881Y-104529500D01*
X127707873Y-104529500D01*
X127707865Y-104529500D01*
X127524500Y-104529500D01*
X127457461Y-104509815D01*
X127411706Y-104457011D01*
X127400500Y-104405500D01*
X127400500Y-101067115D01*
X127420185Y-101000076D01*
X127472989Y-100954321D01*
X127481167Y-100950933D01*
X127567328Y-100918797D01*
X127567327Y-100918797D01*
X127567331Y-100918796D01*
X127682546Y-100832546D01*
X127768796Y-100717331D01*
X127819091Y-100582483D01*
X127821375Y-100561243D01*
X127848114Y-100496692D01*
X127905507Y-100456845D01*
X127944664Y-100450500D01*
X130936610Y-100450500D01*
X130936611Y-100450500D01*
X131107701Y-100423402D01*
X131272445Y-100369873D01*
X131426788Y-100291232D01*
X131566928Y-100189414D01*
X134639414Y-97116928D01*
X134741232Y-96976788D01*
X134819873Y-96822445D01*
X134873402Y-96657701D01*
X134900500Y-96486611D01*
X134900500Y-96313389D01*
X134900500Y-92507204D01*
X134920185Y-92440165D01*
X134936819Y-92419523D01*
X135819523Y-91536819D01*
X135880846Y-91503334D01*
X135907204Y-91500500D01*
X142086610Y-91500500D01*
X142086611Y-91500500D01*
X142257701Y-91473402D01*
X142422445Y-91419873D01*
X142576788Y-91341232D01*
X142716928Y-91239414D01*
X144139414Y-89816928D01*
X144236666Y-89683072D01*
X144241232Y-89676788D01*
X144319873Y-89522445D01*
X144373402Y-89357701D01*
X144400500Y-89186611D01*
X144400500Y-88711433D01*
X144420185Y-88644394D01*
X144472989Y-88598639D01*
X144540558Y-88588923D01*
X144540569Y-88588818D01*
X144540991Y-88588861D01*
X144542147Y-88588695D01*
X144545849Y-88589357D01*
X144650019Y-88599999D01*
X144750000Y-88599998D01*
X144750000Y-82999999D01*
X144650028Y-83000000D01*
X144650012Y-83000001D01*
X144547302Y-83010494D01*
X144380880Y-83065641D01*
X144380875Y-83065643D01*
X144231649Y-83157687D01*
X144227305Y-83161122D01*
X144162507Y-83187255D01*
X144093866Y-83174207D01*
X144073497Y-83161116D01*
X144068660Y-83157292D01*
X144068656Y-83157288D01*
X143919334Y-83065186D01*
X143752797Y-83010001D01*
X143752795Y-83010000D01*
X143650010Y-82999500D01*
X142949998Y-82999500D01*
X142949980Y-82999501D01*
X142847203Y-83010000D01*
X142847200Y-83010001D01*
X142680668Y-83065185D01*
X142680663Y-83065187D01*
X142531342Y-83157289D01*
X142526909Y-83160795D01*
X142462113Y-83186934D01*
X142393471Y-83173892D01*
X142373091Y-83160795D01*
X142368657Y-83157289D01*
X142368656Y-83157288D01*
X142219334Y-83065186D01*
X142052797Y-83010001D01*
X142052795Y-83010000D01*
X141950010Y-82999500D01*
X141249998Y-82999500D01*
X141249980Y-82999501D01*
X141147203Y-83010000D01*
X141147200Y-83010001D01*
X140980668Y-83065185D01*
X140980663Y-83065187D01*
X140831342Y-83157289D01*
X140707289Y-83281342D01*
X140615187Y-83430663D01*
X140615185Y-83430668D01*
X140615115Y-83430880D01*
X140560001Y-83597203D01*
X140560001Y-83597204D01*
X140560000Y-83597204D01*
X140549500Y-83699983D01*
X140549500Y-84575500D01*
X140529815Y-84642539D01*
X140477011Y-84688294D01*
X140425500Y-84699500D01*
X134507204Y-84699500D01*
X134440165Y-84679815D01*
X134419523Y-84663181D01*
X133936819Y-84180477D01*
X133903334Y-84119154D01*
X133900500Y-84092796D01*
X133900500Y-81149984D01*
X139100001Y-81149984D01*
X139110494Y-81252695D01*
X139165641Y-81419117D01*
X139165643Y-81419122D01*
X139257684Y-81568344D01*
X139381655Y-81692315D01*
X139530877Y-81784356D01*
X139530882Y-81784358D01*
X139697304Y-81839505D01*
X139697311Y-81839506D01*
X139800022Y-81849999D01*
X144750000Y-81849999D01*
X145250000Y-81849999D01*
X150199970Y-81849999D01*
X150199984Y-81849998D01*
X150302695Y-81839505D01*
X150469117Y-81784358D01*
X150469122Y-81784356D01*
X150618344Y-81692315D01*
X150742315Y-81568344D01*
X150834356Y-81419122D01*
X150834358Y-81419117D01*
X150889505Y-81252695D01*
X150889506Y-81252688D01*
X150899999Y-81149984D01*
X150900000Y-81149971D01*
X150900000Y-76900000D01*
X145250000Y-76900000D01*
X145250000Y-81849999D01*
X144750000Y-81849999D01*
X144750000Y-76900000D01*
X139100001Y-76900000D01*
X139100001Y-81149984D01*
X133900500Y-81149984D01*
X133900500Y-76850442D01*
X133900500Y-76713389D01*
X133896795Y-76689996D01*
X133873403Y-76542299D01*
X133819873Y-76377555D01*
X133819871Y-76377552D01*
X133819871Y-76377550D01*
X133741231Y-76223211D01*
X133698386Y-76164240D01*
X133698386Y-76164239D01*
X133639418Y-76083075D01*
X129836819Y-72280476D01*
X129822115Y-72253548D01*
X129805523Y-72227730D01*
X129804631Y-72221529D01*
X129803334Y-72219153D01*
X129800500Y-72192795D01*
X129800500Y-72150015D01*
X139100000Y-72150015D01*
X139100000Y-76400000D01*
X144750000Y-76400000D01*
X145250000Y-76400000D01*
X150899999Y-76400000D01*
X150899999Y-72150030D01*
X150899998Y-72150015D01*
X150889505Y-72047304D01*
X150834358Y-71880882D01*
X150834356Y-71880877D01*
X150742315Y-71731655D01*
X150618344Y-71607684D01*
X150469122Y-71515643D01*
X150469117Y-71515641D01*
X150302695Y-71460494D01*
X150302688Y-71460493D01*
X150199984Y-71450000D01*
X145250000Y-71450000D01*
X145250000Y-76400000D01*
X144750000Y-76400000D01*
X144750000Y-71450000D01*
X139800030Y-71450000D01*
X139800014Y-71450001D01*
X139697304Y-71460494D01*
X139530882Y-71515641D01*
X139530877Y-71515643D01*
X139381655Y-71607684D01*
X139257684Y-71731655D01*
X139165643Y-71880877D01*
X139165641Y-71880882D01*
X139110494Y-72047304D01*
X139110493Y-72047311D01*
X139100000Y-72150015D01*
X129800500Y-72150015D01*
X129800500Y-69974500D01*
X129820185Y-69907461D01*
X129872989Y-69861706D01*
X129924500Y-69850500D01*
X143173562Y-69850500D01*
X143367966Y-69819709D01*
X143555166Y-69758884D01*
X143730545Y-69669524D01*
X143889786Y-69553828D01*
X147491328Y-65952286D01*
X147607023Y-65793046D01*
X147694176Y-65621997D01*
X147696081Y-65618594D01*
X147696383Y-65617666D01*
X147696384Y-65617665D01*
X147757209Y-65430466D01*
X147788000Y-65236062D01*
X147788000Y-64248794D01*
X147807685Y-64181755D01*
X147860489Y-64136000D01*
X147864534Y-64134238D01*
X148035962Y-64063231D01*
X148339287Y-63901100D01*
X148625260Y-63710019D01*
X148891127Y-63491828D01*
X149134328Y-63248627D01*
X149352519Y-62982760D01*
X149543600Y-62696787D01*
X149705731Y-62393462D01*
X149837350Y-62075705D01*
X149937190Y-61746578D01*
X150004289Y-61409250D01*
X150038000Y-61066969D01*
X150038000Y-60723031D01*
X150004289Y-60380750D01*
X149937190Y-60043422D01*
X149837350Y-59714295D01*
X149705731Y-59396538D01*
X149623405Y-59242518D01*
X149543606Y-59093224D01*
X149543605Y-59093222D01*
X149543600Y-59093213D01*
X149352519Y-58807240D01*
X149134328Y-58541373D01*
X149134327Y-58541372D01*
X149134323Y-58541367D01*
X148891132Y-58298176D01*
X148625265Y-58079985D01*
X148625264Y-58079984D01*
X148625260Y-58079981D01*
X148339287Y-57888900D01*
X148339282Y-57888897D01*
X148339275Y-57888893D01*
X148035969Y-57726772D01*
X148035964Y-57726770D01*
X147718206Y-57595150D01*
X147389072Y-57495308D01*
X147051748Y-57428210D01*
X147051749Y-57428210D01*
X146793956Y-57402821D01*
X146709469Y-57394500D01*
X146365531Y-57394500D01*
X146287466Y-57402188D01*
X146023250Y-57428210D01*
X145685927Y-57495308D01*
X145356793Y-57595150D01*
X145039035Y-57726770D01*
X145039030Y-57726772D01*
X144735724Y-57888893D01*
X144735706Y-57888904D01*
X144449748Y-58079975D01*
X144449734Y-58079985D01*
X144183867Y-58298176D01*
X143940676Y-58541367D01*
X143722485Y-58807234D01*
X143722475Y-58807248D01*
X143531404Y-59093206D01*
X143531393Y-59093224D01*
X143369272Y-59396530D01*
X143369270Y-59396535D01*
X143237650Y-59714293D01*
X143137808Y-60043427D01*
X143083117Y-60318380D01*
X143050732Y-60380291D01*
X142990016Y-60414865D01*
X142920247Y-60411126D01*
X142863575Y-60370259D01*
X142837994Y-60305241D01*
X142837500Y-60294189D01*
X142837500Y-58152172D01*
X142837499Y-58152155D01*
X142831098Y-58092627D01*
X142831096Y-58092620D01*
X142780854Y-57957913D01*
X142780850Y-57957906D01*
X142694690Y-57842812D01*
X142694687Y-57842809D01*
X142579593Y-57756649D01*
X142579586Y-57756645D01*
X142444879Y-57706403D01*
X142444872Y-57706401D01*
X142385344Y-57700000D01*
X139587500Y-57700000D01*
X139587500Y-58963497D01*
X139484973Y-58950000D01*
X139190027Y-58950000D01*
X139087500Y-58963497D01*
X139087500Y-57700000D01*
X136289655Y-57700000D01*
X136230127Y-57706401D01*
X136230120Y-57706403D01*
X136095413Y-57756645D01*
X136095406Y-57756649D01*
X135980312Y-57842809D01*
X135980309Y-57842812D01*
X135894149Y-57957906D01*
X135894145Y-57957913D01*
X135843903Y-58092620D01*
X135843901Y-58092627D01*
X135837500Y-58152155D01*
X135837500Y-60950000D01*
X137100998Y-60950000D01*
X137087500Y-61052527D01*
X137087500Y-61347473D01*
X137100998Y-61450000D01*
X135837500Y-61450000D01*
X135837500Y-64247844D01*
X135843901Y-64307372D01*
X135843903Y-64307379D01*
X135894145Y-64442086D01*
X135894149Y-64442093D01*
X135980309Y-64557187D01*
X135980312Y-64557190D01*
X136095406Y-64643350D01*
X136095413Y-64643354D01*
X136230120Y-64693596D01*
X136230127Y-64693598D01*
X136289655Y-64699999D01*
X136289672Y-64700000D01*
X139087500Y-64700000D01*
X139087500Y-63436502D01*
X139190027Y-63450000D01*
X139484973Y-63450000D01*
X139587500Y-63436502D01*
X139587500Y-64700000D01*
X142385328Y-64700000D01*
X142385344Y-64699999D01*
X142444872Y-64693598D01*
X142444879Y-64693596D01*
X142579586Y-64643354D01*
X142579593Y-64643350D01*
X142694687Y-64557190D01*
X142694690Y-64557187D01*
X142780850Y-64442093D01*
X142780854Y-64442086D01*
X142831096Y-64307379D01*
X142831098Y-64307372D01*
X142837499Y-64247844D01*
X142837500Y-64247827D01*
X142837500Y-61495810D01*
X142857185Y-61428771D01*
X142909989Y-61383016D01*
X142979147Y-61373072D01*
X143042703Y-61402097D01*
X143080477Y-61460875D01*
X143083117Y-61471619D01*
X143137808Y-61746572D01*
X143237650Y-62075706D01*
X143369270Y-62393464D01*
X143369272Y-62393469D01*
X143531393Y-62696775D01*
X143531404Y-62696793D01*
X143722475Y-62982751D01*
X143722485Y-62982765D01*
X143940676Y-63248632D01*
X144183867Y-63491823D01*
X144183872Y-63491827D01*
X144183873Y-63491828D01*
X144449740Y-63710019D01*
X144735713Y-63901100D01*
X144735722Y-63901105D01*
X144735724Y-63901106D01*
X145039030Y-64063227D01*
X145039032Y-64063227D01*
X145039038Y-64063231D01*
X145210453Y-64134233D01*
X145264856Y-64178074D01*
X145286921Y-64244368D01*
X145287000Y-64248794D01*
X145287000Y-64568304D01*
X145267315Y-64635343D01*
X145250681Y-64655985D01*
X142593485Y-67313181D01*
X142532162Y-67346666D01*
X142505804Y-67349500D01*
X129542007Y-67349500D01*
X129503003Y-67343206D01*
X129501028Y-67342551D01*
X129402797Y-67310001D01*
X129402795Y-67310000D01*
X129300010Y-67299500D01*
X128099998Y-67299500D01*
X128099981Y-67299501D01*
X127997203Y-67310000D01*
X127997200Y-67310001D01*
X127830668Y-67365185D01*
X127830663Y-67365187D01*
X127681342Y-67457289D01*
X127557289Y-67581342D01*
X127465187Y-67730663D01*
X127465186Y-67730666D01*
X127410001Y-67897203D01*
X127410001Y-67897204D01*
X127410000Y-67897204D01*
X127399500Y-67999983D01*
X127399500Y-69200001D01*
X127399501Y-69200018D01*
X127410000Y-69302796D01*
X127410001Y-69302799D01*
X127465185Y-69469331D01*
X127465187Y-69469336D01*
X127557289Y-69618657D01*
X127563181Y-69624549D01*
X127596666Y-69685872D01*
X127599500Y-69712230D01*
X127599500Y-72613389D01*
X127599500Y-72786611D01*
X127626598Y-72957701D01*
X127680127Y-73122445D01*
X127758768Y-73276788D01*
X127860586Y-73416928D01*
X127860588Y-73416930D01*
X131663181Y-77219523D01*
X131696666Y-77280846D01*
X131699500Y-77307204D01*
X131699500Y-84513389D01*
X131699500Y-84686611D01*
X131726598Y-84857701D01*
X131780127Y-85022445D01*
X131858768Y-85176788D01*
X131960586Y-85316928D01*
X133283072Y-86639414D01*
X133423212Y-86741232D01*
X133496131Y-86778386D01*
X133577549Y-86819871D01*
X133577551Y-86819871D01*
X133577554Y-86819873D01*
X133742299Y-86873402D01*
X133913389Y-86900500D01*
X140425501Y-86900500D01*
X140492540Y-86920185D01*
X140538295Y-86972989D01*
X140549501Y-87024500D01*
X140549501Y-87900018D01*
X140560000Y-88002796D01*
X140560001Y-88002799D01*
X140615115Y-88169119D01*
X140615186Y-88169334D01*
X140707288Y-88318656D01*
X140831344Y-88442712D01*
X140980666Y-88534814D01*
X141147203Y-88589999D01*
X141249991Y-88600500D01*
X141943796Y-88600499D01*
X142010835Y-88620183D01*
X142056590Y-88672987D01*
X142066534Y-88742146D01*
X142037509Y-88805702D01*
X142031477Y-88812180D01*
X141580477Y-89263181D01*
X141519154Y-89296666D01*
X141492796Y-89299500D01*
X135313389Y-89299500D01*
X135273728Y-89305781D01*
X135142302Y-89326597D01*
X134977552Y-89380128D01*
X134823211Y-89458768D01*
X134743256Y-89516859D01*
X134683072Y-89560586D01*
X134683070Y-89560588D01*
X134683069Y-89560588D01*
X132960588Y-91283069D01*
X132960588Y-91283070D01*
X132960586Y-91283072D01*
X132918331Y-91341231D01*
X132858768Y-91423211D01*
X132780128Y-91577552D01*
X132726597Y-91742302D01*
X132699500Y-91913389D01*
X132699500Y-95892796D01*
X132679815Y-95959835D01*
X132663181Y-95980477D01*
X130430477Y-98213181D01*
X130369154Y-98246666D01*
X130342796Y-98249500D01*
X127944664Y-98249500D01*
X127877625Y-98229815D01*
X127831870Y-98177011D01*
X127821374Y-98138754D01*
X127821170Y-98136857D01*
X127819091Y-98117517D01*
X127768796Y-97982669D01*
X127768795Y-97982668D01*
X127768793Y-97982664D01*
X127682547Y-97867455D01*
X127682544Y-97867452D01*
X127567335Y-97781206D01*
X127567328Y-97781202D01*
X127432482Y-97730908D01*
X127432483Y-97730908D01*
X127372883Y-97724501D01*
X127372881Y-97724500D01*
X127372873Y-97724500D01*
X127372864Y-97724500D01*
X125027129Y-97724500D01*
X125027123Y-97724501D01*
X124967516Y-97730908D01*
X124832671Y-97781202D01*
X124832664Y-97781206D01*
X124717455Y-97867452D01*
X124717452Y-97867455D01*
X124631206Y-97982664D01*
X124631202Y-97982671D01*
X124580908Y-98117517D01*
X124574501Y-98177116D01*
X124574500Y-98177135D01*
X124574500Y-100522870D01*
X124574501Y-100522876D01*
X124580908Y-100582483D01*
X124631202Y-100717328D01*
X124631206Y-100717335D01*
X124717452Y-100832544D01*
X124717455Y-100832547D01*
X124832664Y-100918793D01*
X124832671Y-100918797D01*
X124918833Y-100950933D01*
X124974766Y-100992804D01*
X124999184Y-101058268D01*
X124999500Y-101067115D01*
X124999500Y-104405500D01*
X124979815Y-104472539D01*
X124927011Y-104518294D01*
X124875501Y-104529500D01*
X124692130Y-104529500D01*
X124692123Y-104529501D01*
X124632516Y-104535908D01*
X124497671Y-104586202D01*
X124497664Y-104586206D01*
X124382455Y-104672452D01*
X124382452Y-104672455D01*
X124296206Y-104787664D01*
X124296202Y-104787671D01*
X124245908Y-104922517D01*
X124239501Y-104982116D01*
X124239501Y-104982123D01*
X124239500Y-104982135D01*
X121100500Y-104982135D01*
X121100500Y-79722110D01*
X124575000Y-79722110D01*
X124575000Y-79977889D01*
X124615013Y-80230523D01*
X124694051Y-80473781D01*
X124694052Y-80473784D01*
X124810175Y-80701686D01*
X124887850Y-80808595D01*
X124887850Y-80808596D01*
X125522421Y-80174024D01*
X125535359Y-80205258D01*
X125617437Y-80328097D01*
X125721903Y-80432563D01*
X125844742Y-80514641D01*
X125875974Y-80527577D01*
X125241402Y-81162148D01*
X125348313Y-81239824D01*
X125576215Y-81355947D01*
X125576218Y-81355948D01*
X125819476Y-81434986D01*
X126072111Y-81475000D01*
X126327889Y-81475000D01*
X126580523Y-81434986D01*
X126823781Y-81355948D01*
X126823784Y-81355947D01*
X127051685Y-81239825D01*
X127158595Y-81162148D01*
X127158596Y-81162148D01*
X126524025Y-80527578D01*
X126555258Y-80514641D01*
X126678097Y-80432563D01*
X126782563Y-80328097D01*
X126864641Y-80205258D01*
X126877578Y-80174025D01*
X127512148Y-80808596D01*
X127512148Y-80808595D01*
X127589825Y-80701685D01*
X127705947Y-80473784D01*
X127705948Y-80473781D01*
X127784986Y-80230523D01*
X127825000Y-79977889D01*
X127825000Y-79722110D01*
X127784986Y-79469476D01*
X127705948Y-79226218D01*
X127705947Y-79226215D01*
X127589824Y-78998313D01*
X127512148Y-78891403D01*
X127512148Y-78891402D01*
X126877577Y-79525973D01*
X126864641Y-79494742D01*
X126782563Y-79371903D01*
X126678097Y-79267437D01*
X126555258Y-79185359D01*
X126524024Y-79172421D01*
X127158596Y-78537850D01*
X127051686Y-78460175D01*
X126823784Y-78344052D01*
X126823781Y-78344051D01*
X126580523Y-78265013D01*
X126327889Y-78225000D01*
X126072111Y-78225000D01*
X125819476Y-78265013D01*
X125576218Y-78344051D01*
X125576215Y-78344052D01*
X125348310Y-78460177D01*
X125241403Y-78537849D01*
X125241402Y-78537850D01*
X125875974Y-79172421D01*
X125844742Y-79185359D01*
X125721903Y-79267437D01*
X125617437Y-79371903D01*
X125535359Y-79494742D01*
X125522421Y-79525974D01*
X124887850Y-78891402D01*
X124887849Y-78891403D01*
X124810177Y-78998310D01*
X124694052Y-79226215D01*
X124694051Y-79226218D01*
X124615013Y-79469476D01*
X124575000Y-79722110D01*
X121100500Y-79722110D01*
X121100500Y-68497682D01*
X123900000Y-68497682D01*
X123900000Y-68702317D01*
X123932009Y-68904417D01*
X123995244Y-69099031D01*
X124088141Y-69281350D01*
X124088147Y-69281359D01*
X124120523Y-69325921D01*
X124120524Y-69325922D01*
X124800000Y-68646446D01*
X124800000Y-68652661D01*
X124827259Y-68754394D01*
X124879920Y-68845606D01*
X124954394Y-68920080D01*
X125045606Y-68972741D01*
X125147339Y-69000000D01*
X125153553Y-69000000D01*
X124474076Y-69679474D01*
X124518650Y-69711859D01*
X124700968Y-69804755D01*
X124895582Y-69867990D01*
X125097683Y-69900000D01*
X125302317Y-69900000D01*
X125504417Y-69867990D01*
X125699031Y-69804755D01*
X125881349Y-69711859D01*
X125925921Y-69679474D01*
X125246447Y-69000000D01*
X125252661Y-69000000D01*
X125354394Y-68972741D01*
X125445606Y-68920080D01*
X125520080Y-68845606D01*
X125572741Y-68754394D01*
X125600000Y-68652661D01*
X125600000Y-68646447D01*
X126279474Y-69325921D01*
X126311859Y-69281349D01*
X126404755Y-69099031D01*
X126467990Y-68904417D01*
X126500000Y-68702317D01*
X126500000Y-68497682D01*
X126467990Y-68295582D01*
X126404755Y-68100968D01*
X126311859Y-67918650D01*
X126279474Y-67874077D01*
X126279474Y-67874076D01*
X125600000Y-68553551D01*
X125600000Y-68547339D01*
X125572741Y-68445606D01*
X125520080Y-68354394D01*
X125445606Y-68279920D01*
X125354394Y-68227259D01*
X125252661Y-68200000D01*
X125246446Y-68200000D01*
X125925922Y-67520524D01*
X125925921Y-67520523D01*
X125881359Y-67488147D01*
X125881350Y-67488141D01*
X125699031Y-67395244D01*
X125504417Y-67332009D01*
X125302317Y-67300000D01*
X125097683Y-67300000D01*
X124895582Y-67332009D01*
X124700968Y-67395244D01*
X124518644Y-67488143D01*
X124474077Y-67520523D01*
X124474077Y-67520524D01*
X125153554Y-68200000D01*
X125147339Y-68200000D01*
X125045606Y-68227259D01*
X124954394Y-68279920D01*
X124879920Y-68354394D01*
X124827259Y-68445606D01*
X124800000Y-68547339D01*
X124800000Y-68553553D01*
X124120524Y-67874077D01*
X124120523Y-67874077D01*
X124088143Y-67918644D01*
X123995244Y-68100968D01*
X123932009Y-68295582D01*
X123900000Y-68497682D01*
X121100500Y-68497682D01*
X121100500Y-58077271D01*
X122327535Y-58077271D01*
X122327535Y-58322728D01*
X122359572Y-58566080D01*
X122423102Y-58803176D01*
X122517031Y-59029940D01*
X122517035Y-59029950D01*
X122639760Y-59242517D01*
X122789183Y-59437249D01*
X122789189Y-59437256D01*
X122962743Y-59610810D01*
X122962750Y-59610816D01*
X123157482Y-59760239D01*
X123370049Y-59882964D01*
X123370050Y-59882964D01*
X123370053Y-59882966D01*
X123596824Y-59976898D01*
X123833916Y-60040427D01*
X124016433Y-60064455D01*
X124077271Y-60072465D01*
X124077272Y-60072465D01*
X124322729Y-60072465D01*
X124371399Y-60066057D01*
X124566084Y-60040427D01*
X124803176Y-59976898D01*
X125029947Y-59882966D01*
X125242518Y-59760239D01*
X125437251Y-59610815D01*
X125610815Y-59437251D01*
X125760239Y-59242518D01*
X125882966Y-59029947D01*
X125976898Y-58803176D01*
X126040427Y-58566084D01*
X126072465Y-58322728D01*
X126072465Y-58077272D01*
X126040427Y-57833916D01*
X125976898Y-57596824D01*
X125882966Y-57370053D01*
X125861418Y-57332731D01*
X125760239Y-57157482D01*
X125610816Y-56962750D01*
X125610810Y-56962743D01*
X125437256Y-56789189D01*
X125437249Y-56789183D01*
X125242517Y-56639760D01*
X125029950Y-56517035D01*
X125029940Y-56517031D01*
X124803176Y-56423102D01*
X124566080Y-56359572D01*
X124322729Y-56327535D01*
X124322728Y-56327535D01*
X124077272Y-56327535D01*
X124077271Y-56327535D01*
X123833919Y-56359572D01*
X123596823Y-56423102D01*
X123370059Y-56517031D01*
X123370049Y-56517035D01*
X123157482Y-56639760D01*
X122962750Y-56789183D01*
X122962743Y-56789189D01*
X122789189Y-56962743D01*
X122789183Y-56962750D01*
X122639760Y-57157482D01*
X122517035Y-57370049D01*
X122517031Y-57370059D01*
X122423102Y-57596823D01*
X122359572Y-57833919D01*
X122327535Y-58077271D01*
X121100500Y-58077271D01*
X121100500Y-55424500D01*
X121120185Y-55357461D01*
X121172989Y-55311706D01*
X121224500Y-55300500D01*
X153075500Y-55300500D01*
X153142539Y-55320185D01*
G37*
%TD.AperFunction*%
%TD*%
M02*
